<?xml version="1.0" encoding="UTF-8" standalone="no"?>
<svg
   xmlns:dc="http://purl.org/dc/elements/1.1/"
   xmlns:cc="http://creativecommons.org/ns#"
   xmlns:rdf="http://www.w3.org/1999/02/22-rdf-syntax-ns#"
   xmlns:svg="http://www.w3.org/2000/svg"
   xmlns="http://www.w3.org/2000/svg"
   xmlns:sodipodi="http://sodipodi.sourceforge.net/DTD/sodipodi-0.dtd"
   xmlns:inkscape="http://www.inkscape.org/namespaces/inkscape"
   width="72"
   height="74.43573"
   viewBox="0 0 19.049999 19.694453"
   version="1.1"
   id="svg3221"
   inkscape:version="1.0.2 (e86c870879, 2021-01-15)"
   sodipodi:docname="logo-inverted.svg">
  <defs
     id="defs3215" />
  <sodipodi:namedview
     id="base"
     pagecolor="#ffffff"
     bordercolor="#666666"
     borderopacity="1.0"
     inkscape:pageopacity="0.0"
     inkscape:pageshadow="2"
     inkscape:zoom="5.6568542"
     inkscape:cx="63.186753"
     inkscape:cy="45.786707"
     inkscape:document-units="mm"
     inkscape:current-layer="layer1"
     inkscape:document-rotation="0"
     showgrid="false"
     fit-margin-top="0"
     fit-margin-left="0"
     fit-margin-right="0"
     fit-margin-bottom="0"
     units="px"
     inkscape:window-width="2234"
     inkscape:window-height="1497"
     inkscape:window-x="2173"
     inkscape:window-y="361"
     inkscape:window-maximized="0" />
  <metadata
     id="metadata3218">
    <rdf:RDF>
      <cc:Work
         rdf:about="">
        <dc:format>image/svg+xml</dc:format>
        <dc:type
           rdf:resource="http://purl.org/dc/dcmitype/StillImage" />
        <dc:title></dc:title>
      </cc:Work>
    </rdf:RDF>
  </metadata>
  <g
     inkscape:label="Layer 1"
     inkscape:groupmode="layer"
     id="layer1"
     transform="translate(-52.37599,-91.150985)">
    <g
       id="g280"
       transform="matrix(0.05558175,0,0,-0.05558175,53.760371,104.39409)"
       style="fill:#ffffff">
      <path
         d="m 0,0 c 0.025,-0.037 0.05,-0.062 0.075,-0.1 0.013,-0.012 0.038,-0.025 0.05,-0.038 z m 169.097,-110.119 c -0.013,0.013 -0.026,0.013 -0.038,0.025 l 0.113,-0.176 c -0.026,0.051 -0.051,0.101 -0.075,0.151 M 306.952,-1.151 c -0.376,0.062 -0.726,0.262 -1.077,0.4 0.476,0.112 0.964,0.363 1.402,0.288 0.238,-0.05 0.413,-0.413 0.601,-0.714 -0.313,-0.012 -0.626,-0.037 -0.926,0.026 m -3.092,-2.253 c -0.088,0.05 -0.1,0.25 -0.137,0.375 0.174,0.05 0.35,0.1 0.538,0.15 0.05,-0.2 0.1,-0.4 0.15,-0.6 -0.187,0.025 -0.4,0 -0.551,0.075 m -5.157,-15.207 c -0.074,0.049 -0.024,0.262 -0.037,0.4 0.112,-0.163 0.213,-0.326 0.313,-0.501 -0.1,0.025 -0.201,0.05 -0.276,0.101 m -2.516,19.612 c -0.2,0.2 -0.4,0.413 -0.6,0.613 0.125,0.138 0.263,0.264 0.4,0.402 0.125,-0.151 0.25,-0.301 0.364,-0.464 -0.05,-0.175 -0.101,-0.363 -0.164,-0.551 m -4.693,-19.313 0.05,0.289 0.514,-0.176 z M 288.54,-36.16 c -0.125,0.15 -0.351,0.313 -0.338,0.464 0.013,0.149 0.25,0.275 0.388,0.425 0.126,-0.163 0.35,-0.326 0.339,-0.476 -0.013,-0.138 -0.251,-0.275 -0.389,-0.413 m -17.86,-0.588 c -0.026,0.037 -0.063,0.088 -0.076,0.138 0.125,-0.088 0.263,-0.163 0.388,-0.25 -0.099,0.037 -0.25,0.037 -0.312,0.112 m -1.828,-9.024 c -0.201,0.112 -0.375,0.251 -0.551,0.4 -0.125,0.038 -0.263,0.075 -0.388,0.113 l -0.175,0.363 0.276,-0.25 c 0.099,-0.076 0.187,-0.151 0.287,-0.226 0.326,-0.087 0.638,-0.188 0.952,-0.275 -0.138,-0.05 -0.326,-0.175 -0.401,-0.125 m -7.848,-17.185 c -0.063,0.175 -0.175,0.362 -0.162,0.538 0.012,0.162 0.162,0.313 0.25,0.463 l 0.187,-0.525 c -0.087,-0.164 -0.187,-0.314 -0.275,-0.476 m -18.562,-16.659 c 0.125,0.099 0.301,0.325 0.364,0.3 0.325,-0.175 0.65,-0.351 0.975,-0.551 -0.45,0.088 -0.9,0.163 -1.339,0.251 m -9.199,-6.472 c -0.176,0.063 -0.338,0.113 -0.514,0.176 0.176,0.162 0.338,0.362 0.539,0.45 0.075,0.038 0.275,-0.2 0.413,-0.325 -0.151,-0.101 -0.3,-0.2 -0.438,-0.301 m -8.436,-3.154 c -0.238,0.376 -0.375,0.802 -0.526,1.227 -0.125,0.05 -0.238,0.1 -0.35,0.15 -0.063,0.225 -0.113,0.464 -0.175,0.688 -0.276,0.326 -0.551,0.664 -0.815,0.989 0.151,0.125 0.314,0.238 0.477,0.363 0.112,-0.45 0.225,-0.901 0.338,-1.352 0.138,-0.162 0.263,-0.325 0.4,-0.488 0.05,-0.112 0.087,-0.237 0.125,-0.35 0.413,-0.163 0.851,-0.326 1.177,-0.613 0.237,-0.213 0.162,-0.764 0.237,-1.164 -0.299,0.175 -0.725,0.287 -0.888,0.55 m -6.684,0.15 c -0.237,-0.087 -0.801,0.689 -1.214,1.077 0.538,0.576 1.001,1.277 1.653,1.677 0.275,0.163 0.938,-0.338 2.515,-0.976 -1.327,-0.838 -2.091,-1.452 -2.954,-1.778 m -2.365,-6.834 0.05,0.314 0.35,-0.213 z m -12.429,0.727 0.188,0.551 0.099,-0.577 z m -0.551,4.017 c -0.338,0.013 -0.901,0.125 -0.976,0.338 -0.088,0.288 0.2,0.689 0.325,1.052 0.325,-0.201 0.727,-0.326 0.927,-0.613 0.099,-0.126 -0.176,-0.777 -0.276,-0.777 m -26.898,-7.585 c -0.125,0.151 -0.362,0.301 -0.35,0.451 0,0.137 0.25,0.275 0.388,0.413 0.125,-0.151 0.263,-0.3 0.375,-0.438 -0.138,-0.138 -0.275,-0.275 -0.413,-0.426 m -12.491,-7.509 c -0.125,0.15 -0.363,0.312 -0.351,0.45 0,0.138 0.264,0.263 0.401,0.388 0.138,-0.15 0.263,-0.3 0.388,-0.438 -0.15,-0.138 -0.288,-0.263 -0.438,-0.4 m -4.756,-2.829 c -1.027,-0.326 -2.078,-0.651 -3.142,-0.701 -0.426,-0.025 -0.876,0.538 -1.314,0.864 -0.063,-0.026 -0.138,-0.063 -0.213,-0.088 -0.087,0.075 -0.162,0.15 -0.25,0.225 -0.613,0.125 -1.201,0.25 -1.803,0.375 0.213,0.239 0.426,0.476 0.639,0.714 0.387,-0.363 0.776,-0.725 1.164,-1.089 0.125,-0.025 0.263,-0.049 0.388,-0.075 0.025,-0.013 0.05,-0.037 0.075,-0.062 0.488,0.213 0.964,0.45 1.477,0.55 1.014,0.201 2.04,0.288 3.067,0.413 -0.026,-0.388 0.05,-1.088 -0.088,-1.126 m -30.766,10.338 c -0.024,0.301 -0.05,0.601 -0.075,0.902 0.701,-0.125 1.415,-0.263 2.104,-0.401 -0.676,-0.175 -1.353,-0.338 -2.029,-0.501 m -9.199,-4.004 c -0.439,0.299 -0.801,0.7 -1.189,1.076 -0.914,0.237 -1.84,0.475 -3.205,0.826 1.678,0.725 2.955,2.152 3.718,-0.276 0.463,-0.325 0.913,-0.638 1.377,-0.963 -0.238,-0.239 -0.651,-0.702 -0.701,-0.663 m -6.733,4.355 c -0.126,0.362 -0.376,0.738 -0.376,1.102 0.012,0.387 0.275,0.751 0.425,1.138 0.175,-0.312 0.364,-0.613 0.638,-1.063 -0.2,-0.351 -0.437,-0.764 -0.687,-1.177 m -35.384,5.595 c -0.288,0.187 -0.426,0.626 -0.626,0.964 0.362,0.125 0.801,0.413 1.089,0.312 0.237,-0.1 0.299,-0.65 0.45,-1.014 -0.313,-0.099 -0.738,-0.375 -0.913,-0.262 m -11.979,13.229 -0.262,0.226 0.325,0.125 z m -28.825,17.399 -0.351,0.187 0.376,0.138 z m -3.729,-3.718 -0.376,0.2 0.413,0.125 z m -7.373,3.492 c -0.1,0.063 -0.225,0.125 -0.35,0.2 0.125,0.2 0.263,0.413 0.388,0.614 0.125,-0.138 0.363,-0.289 0.35,-0.414 0,-0.137 -0.238,-0.262 -0.388,-0.4 m -2.691,15.295 0.025,0.351 0.375,-0.201 z m -3.617,-6.309 -0.325,0.213 0.375,0.113 z m -4.344,7.411 c -0.488,0.15 -1.139,0.162 -1.401,0.488 -0.764,0.913 -1.403,1.939 -2.066,2.916 -0.112,0.025 -0.213,0.05 -0.312,0.075 -0.051,0.037 -0.101,0.075 -0.163,0.125 -0.288,-0.037 -0.576,-0.088 -0.876,-0.075 -0.376,0.013 -0.751,0.125 -1.127,0.2 0.389,0.138 0.789,0.413 1.177,0.376 0.288,-0.038 0.563,-0.288 0.826,-0.501 0.1,0.013 0.213,0.025 0.313,0.037 0.05,-0.074 0.113,-0.149 0.162,-0.237 1.214,-0.313 2.479,-0.551 3.593,-1.076 0.263,-0.138 -0.075,-1.528 -0.126,-2.328 m -5.769,19.325 0.2,-0.413 -0.463,0.037 z m -2.867,-8.149 c -0.337,0.063 -0.664,0.226 -1.002,0.338 0.151,0.125 0.301,0.376 0.426,0.363 0.338,-0.062 0.676,-0.225 1.002,-0.35 -0.137,-0.125 -0.301,-0.363 -0.426,-0.351 m -1.552,10.877 c 0.363,-0.112 0.688,-0.312 1.026,-0.475 -0.138,-0.163 -0.263,-0.326 -0.4,-0.476 -0.338,0.175 -0.689,0.351 -1.027,0.538 0.138,0.138 0.314,0.439 0.401,0.413 M 1.99,-19.25 c 0.726,0.1 1.452,0.25 2.178,0.25 0.176,0 0.351,-0.488 0.651,-0.938 -0.664,-0.113 -1.239,-0.351 -1.727,-0.239 -0.413,0.101 -0.738,0.602 -1.102,0.927 m -3.004,5.332 h -0.213 c -0.037,0.075 -0.062,0.138 -0.112,0.2 -1.489,0.375 -2.967,0.739 -4.443,1.114 -0.163,-0.025 -0.314,-0.038 -0.463,-0.038 0.024,0.05 0.05,0.113 0.087,0.163 -0.313,0.764 -0.713,1.502 -0.889,2.291 -0.224,1.026 -0.237,2.102 -0.349,3.167 0.375,-0.039 1.013,0.037 1.088,-0.138 0.438,-1.039 0.952,-2.128 1.027,-3.242 0.05,-0.676 -0.527,-1.377 -0.877,-2.078 0,-0.012 0.012,-0.025 0.012,-0.038 0.125,-0.024 0.239,-0.062 0.364,-0.087 1.614,0.163 3.379,0.864 4.443,-1.114 0.075,-0.025 0.162,-0.038 0.237,-0.062 0.026,-0.051 0.063,-0.088 0.088,-0.138 h 4.732 c -0.689,-1.364 -1.214,-2.391 -2.053,-4.056 -1.039,1.565 -1.865,2.829 -2.679,4.056 m 0.426,-8.374 c -0.138,0 -0.263,0.251 -0.388,0.389 0.137,0.125 0.288,0.362 0.425,0.362 0.138,-0.012 0.263,-0.263 0.401,-0.4 -0.15,-0.125 -0.3,-0.363 -0.438,-0.351 m -10.351,12.429 h -0.087 c 0.049,0.038 0.087,0.075 0.137,0.113 -0.012,-0.038 -0.025,-0.113 -0.05,-0.113 m 8.787,4.518 c 0.125,0.013 0.275,-0.224 0.413,-0.35 -0.351,-0.1 -0.689,-0.212 -1.052,-0.326 -0.125,0.125 -0.25,0.263 -0.375,0.401 0.338,0.1 0.663,0.238 1.014,0.275 m 12.803,17.098 c -0.049,-0.1 -0.062,-0.263 -0.15,-0.313 -0.037,-0.025 -0.074,-0.038 -0.125,-0.05 0.101,0.125 0.188,0.251 0.275,0.363 m 261.856,2.916 c -0.213,0.376 -0.613,0.789 -0.564,1.127 0.063,0.437 0.501,0.826 0.764,1.252 0.138,-0.276 0.263,-0.551 0.426,-0.877 -0.2,-0.476 -0.413,-0.988 -0.626,-1.502 m 39.076,-0.826 c -9.074,1.089 -18.099,2.728 -27.186,3.543 -15.733,1.414 -31.503,2.39 -47.249,3.479 -8.636,0.601 -17.235,0.538 -26.847,-1.49 7.221,-2.265 13.604,-2.866 20.001,-3.016 6.671,-0.15 13.242,-0.739 19.775,-2.178 6.246,-1.365 12.654,-0.25 19.125,-2.353 6.797,-2.216 14.444,-1.865 21.741,-2.416 2.128,-0.162 3.267,-0.775 2.854,-2.916 -0.751,-3.855 -0.839,-8.161 -2.703,-11.428 -5.007,-8.749 -10.765,-17.085 -16.297,-25.533 -1.364,-2.078 -2.991,-3.98 -4.481,-5.958 -1.351,-1.451 -2.778,-2.853 -4.043,-4.381 -6.132,-7.396 -12.278,-14.768 -20.263,-20.263 -9.526,-6.559 -19.239,-12.78 -29.477,-18.187 -8.147,-4.306 -16.909,-7.46 -24.294,-13.279 -3.63,-2.855 -8.135,-3.055 -12.441,-0.876 -2.165,1.089 -4.043,3.078 -6.821,1.226 -2.128,-1.427 -5.207,-1.415 -6.471,-4.193 -1.377,-0.112 -2.754,-0.238 -4.131,-0.363 1.202,-1.451 1.364,-2.615 -1.014,-2.077 -5.469,1.239 -12.078,0.938 -18.286,-1.19 0.676,-1.314 1.314,-2.616 1.978,-3.892 -1.59,0.262 -2.291,-0.476 -2.666,-2.141 -0.125,-0.601 -1.49,-0.976 -2.354,-1.302 -0.088,0 -0.538,1.002 -0.85,1.502 -0.764,1.228 -0.327,1.515 0.988,1.841 2.216,0.538 1.827,2.615 1.452,4.055 -0.226,0.876 -1.502,1.865 -2.478,2.115 -3.192,0.813 -6.458,1.402 -9.725,1.827 -0.464,0.063 -1.077,-0.963 -1.64,-1.64 -1.765,0.914 -3.442,2.304 -5.32,2.655 -4.293,0.788 -8.724,0.825 -13.004,1.627 -3.855,0.713 -7.572,2.765 -11.402,2.928 -4.869,0.201 -8.837,2.128 -12.905,4.218 -1.839,0.951 -3.517,2.303 -5.82,1.402 -0.275,-0.1 -0.839,0.438 -1.202,0.751 -2.402,2.053 -4.606,4.38 -7.196,6.121 -6.735,4.531 -13.618,8.849 -20.502,13.142 -1.54,0.951 -3.329,1.877 -5.082,2.065 -5.369,0.563 -9.475,4.143 -12.617,7.397 -4.118,4.28 -6.044,10.614 -9.287,15.833 -2.278,3.668 -4.818,7.31 -7.86,10.352 C 9.851,-23.393 5.42,-17.035 4.08,-8.924 3.53,-5.532 2.078,-2.741 0.075,-0.1 c -1.601,1.089 -3.379,1.214 -1.99,4.656 1.74,4.331 0.764,4.669 5.433,5.269 2.227,0.288 4.43,0.839 6.645,1.278 0.025,0.024 0.038,0.062 0.063,0.086 1.014,-0.312 2.041,-0.85 3.004,-0.738 2.228,0.263 4.406,1.339 6.609,1.339 11.002,0.051 21.653,2.679 32.467,4.094 3.054,0.4 6.058,1.238 9.112,1.601 8.011,0.939 16.046,1.715 24.069,2.554 -1.452,0.988 -2.853,1.302 -4.256,1.276 C 67.113,21.003 52.994,20.803 38.889,20.227 28.763,19.801 18.625,19.112 8.549,18.023 c -7.91,-0.85 -15.734,-2.502 -24.031,-3.867 0.35,-5.307 0.688,-10.664 1.088,-16.009 0.038,-0.587 0.201,-1.376 0.601,-1.676 1.728,-1.252 3.18,-2.391 0.439,-4.069 0.65,-0.763 1.313,-1.526 1.964,-2.29 h -0.025 c 1.252,-5.094 4.431,-8.987 7.785,-12.792 3.067,-5.695 4.144,-12.478 9.325,-17.009 0.788,-5.507 4.444,-9.175 8.074,-12.892 1.426,-2.229 2.552,-4.732 5.582,-5.407 0.65,-0.138 1.377,-0.951 1.652,-1.627 2.253,-5.62 6.934,-8.799 11.702,-11.904 0,0.013 0.013,0.026 0.013,0.038 3.942,-3.054 7.635,-6.496 11.878,-9.049 12.755,-7.698 24.995,-16.309 39.74,-20.365 5.444,-1.489 10.626,-3.229 16.358,-3.016 8.224,0.313 15.958,-1.552 23.293,-5.457 4.356,-2.303 8.9,-4.468 13.618,-5.845 9.337,-2.717 17.974,1.727 27.199,2.804 -0.839,1.226 -1.265,1.852 -1.691,2.466 0.639,0.275 1.289,0.825 1.904,0.775 0.951,-0.088 1.877,-0.588 2.815,-0.901 l -0.125,-0.188 c 0.075,0.063 0.138,0.125 0.213,0.188 0.263,0.251 0.551,0.488 0.826,0.726 0.112,-0.262 0.226,-0.513 0.351,-0.776 0.338,-0.2 0.675,-0.501 1.039,-0.551 1.376,-0.162 2.778,-0.388 4.117,-0.213 0.251,0.038 0,2.016 0.476,2.804 0.275,0.451 1.94,0.676 2.291,0.325 1.101,-1.126 1.551,-2.791 3.767,-2.578 2.328,0.213 4.543,0.951 7.046,0.764 2.504,-0.188 5.145,1.264 7.723,2.015 1.577,0.463 3.192,1.514 4.706,1.376 4.957,-0.425 8.737,2.066 12.617,4.432 2.978,1.827 6.02,3.592 8.887,5.595 7.522,5.281 14.957,10.675 22.441,16.033 0.013,-0.013 0.025,-0.013 0.038,-0.026 2.878,2.053 5.757,4.093 8.636,6.159 l 0.025,-0.037 c 2.24,0.913 4.444,2.515 6.709,2.59 3.617,0.138 5.82,1.89 7.585,4.556 1.715,2.591 3.067,5.407 4.831,7.948 1.277,1.815 2.716,3.78 4.569,4.894 3.967,2.416 6.182,5.92 7.634,10.113 1.415,1.39 3.017,2.653 4.156,4.231 4.193,5.77 7.109,12.403 11.803,17.861 0.35,0.4 0.263,1.151 0.388,1.739 l -0.05,0.05 c 1.214,1.966 2.691,3.818 3.504,5.945 1.603,4.219 2.779,8.6 4.131,12.917 h -0.075 c 1.928,3.755 3.955,7.46 5.745,11.29 0.976,2.066 0.463,3.405 -2.253,3.73 m -47.55,-60.041 -0.262,-0.901 c 0.15,0.25 0.299,0.5 0.437,0.751 0.051,0.087 0.101,0.201 0.163,0.3 -0.112,-0.05 -0.225,-0.099 -0.338,-0.15 m 0.45,0.313 c -0.049,-0.05 -0.087,-0.1 -0.112,-0.163 0.15,0.063 0.301,0.125 0.45,0.188 -0.112,0 -0.287,0.038 -0.338,-0.025"
         style="fill:#ffffff;fill-opacity:1;fill-rule:nonzero;stroke:none"
         id="path282" />
    </g>
    <g
       id="g284"
       transform="matrix(0.05558175,0,0,-0.05558175,59.807927,106.89923)"
       style="fill:#ffffff">
      <path
         d="m 0,0 c -7.372,-0.038 -14.23,1.452 -20.201,6.221 -9.412,7.509 -19.401,14.356 -28.324,22.404 -7.71,6.934 -13.494,15.708 -18.024,25.146 -0.451,0.938 -1.202,2.014 0.476,2.277 0.525,0.088 1.451,-0.689 1.752,-1.277 1.602,-3.229 3.154,-6.496 5.644,-9.124 3.593,-3.793 7.172,-7.522 9.012,-12.591 0.464,-1.265 1.74,-2.316 2.829,-3.254 3.066,-2.616 3.58,-2.453 7.072,-0.464 2.553,1.477 5.294,2.616 7.973,3.843 -2.591,-2.215 -5.182,-4.431 -7.886,-6.746 3.292,-5.846 7.961,-10.277 13.806,-13.569 3.78,-2.139 7.359,-4.655 11.215,-6.658 2.315,-1.201 4.919,-2.04 7.497,-2.516 C -4.317,3.166 -1.84,2.29 0,0"
         style="fill:#ffffff;fill-opacity:1;fill-rule:nonzero;stroke:none"
         id="path286" />
    </g>
    <g
       id="g288"
       transform="matrix(0.05558175,0,0,-0.05558175,65.447741,108.22814)"
       style="fill:#ffffff">
      <path
         d="m 0,0 c 1.222,0.999 2.3,2.308 3.688,2.947 7.913,3.645 15.8,7.29 22.076,13.589 0.43,0.434 0.967,0.829 1.531,1.052 6.9,2.724 11.411,8.081 15.463,13.952 -0.046,-0.044 -0.092,-0.089 -0.138,-0.133 3.396,4.735 6.613,9.611 10.243,14.158 2.793,3.498 4.654,7.291 6.043,11.512 1.017,3.087 2.845,5.905 4.304,8.847 1.465,2.953 2.879,5.932 4.415,8.848 0.318,0.606 1.079,1.364 1.627,1.356 0.559,-0.007 1.414,-0.778 1.592,-1.379 0.332,-1.116 0.698,-2.534 0.286,-3.503 C 69.925,68.411 68.788,65.344 66.805,63.088 63.844,59.719 61.747,55.987 60.104,51.929 54.479,38.039 44.287,27.627 33.903,17.354 33.462,16.917 32.982,16.431 32.424,16.214 25.991,13.719 21.608,8.146 15.535,5.068 9.622,2.072 3.912,-1.321 -1.909,-4.498 c -1.272,-0.693 -2.589,-1.428 -3.977,-1.758 -3.122,-0.743 -5.701,-2.119 -8.069,-4.405 -3.097,-2.991 -7.086,-3.844 -11.509,-2.802 7.581,3.656 13.135,10.493 21.368,12.975 0.965,0.29 2.004,0.334 3.009,0.491 l -0.152,0.163 c 0.326,-0.512 0.651,-1.023 0.977,-1.535 0.141,0.514 0.283,1.027 0.423,1.541 z"
         style="fill:#ffffff;fill-opacity:1;fill-rule:nonzero;stroke:none"
         id="path290" />
    </g>
    <g
       id="g292"
       transform="matrix(0.05558175,0,0,-0.05558175,54.269455,104.04822)"
       style="fill:#ffffff">
      <path
         d="m 0,0 c 0.638,-0.635 1.485,-1.161 1.879,-1.923 2.572,-4.973 5.319,-9.884 7.48,-15.036 2.386,-5.689 6.05,-10.324 9.96,-14.994 4.791,-5.721 8.986,-11.953 13.273,-18.079 2.07,-2.958 4.206,-5.322 7.887,-6.614 3.457,-1.214 6.396,-3.848 9.636,-5.73 6.077,-3.528 12.229,-6.926 18.297,-10.467 1.42,-0.829 2.602,-2.055 3.948,-3.02 1.259,-0.901 0.4,-1.514 -0.01,-2.454 -0.66,-1.511 -1.483,-1.053 -2.387,-0.557 -1.095,0.601 -2.15,1.275 -3.199,1.953 -7.531,4.858 -15.042,9.746 -22.592,14.574 -1.373,0.878 -2.964,2.269 -4.335,2.141 -4.815,-0.449 -7.393,2.541 -9.628,5.809 -3.29,4.807 -6.082,9.955 -9.305,14.812 -2.155,3.25 -4.338,6.615 -7.129,9.28 -5.223,4.987 -8.729,10.709 -10.381,17.759 -0.967,4.123 -2.632,8.082 -3.983,12.115 z"
         style="fill:#ffffff;fill-opacity:1;fill-rule:nonzero;stroke:none"
         id="path294" />
    </g>
    <g
       id="g296"
       transform="matrix(0.05558175,0,0,-0.05558175,60.376718,108.91884)"
       style="fill:#ffffff">
      <path
         d="m 0,0 c 7.186,-0.957 14.365,-1.957 21.559,-2.849 2.874,-0.356 5.842,-0.962 8.654,-0.59 4.962,0.656 9.837,1.605 14.875,0.66 1.162,-0.218 3.036,-0.179 3.603,0.528 4.562,5.684 9.713,1.385 14.757,0.454 -1.224,-0.112 -2.55,-0.583 -3.655,-0.272 -3.577,1.008 -6.891,1.487 -9.805,-1.618 C 49.347,-4.37 48.155,-4.633 47.165,-4.879 35.128,-7.865 23.053,-8.907 10.869,-5.629 9.077,-5.146 7.157,-4.853 5.311,-4.913 1.679,-5.032 0.282,-3.152 0.12,0.141 Z"
         style="fill:#ffffff;fill-opacity:1;fill-rule:nonzero;stroke:none"
         id="path298" />
    </g>
    <g
       id="g300"
       transform="matrix(0.05558175,0,0,-0.05558175,60.383393,108.91103)"
       style="fill:#ffffff">
      <path
         d="m 0,0 c -0.208,-0.008 -0.417,-0.005 -0.623,-0.027 -3.481,-0.38 -3.481,-0.381 -1.008,-4.302 -11.802,1.995 -22.997,3.447 -32.894,9.65 -0.517,0.324 -1.009,0.753 -1.365,1.241 -0.188,0.258 -0.222,0.903 -0.036,1.102 0.383,0.409 1.092,0.996 1.435,0.871 0.954,-0.347 1.76,-1.076 2.676,-1.556 3.862,-2.022 7.733,-3.577 12.312,-3.763 3.343,-0.136 6.565,-2.518 9.938,-2.818 3.107,-0.276 6.36,1.336 9.445,-0.539 z"
         style="fill:#ffffff;fill-opacity:1;fill-rule:nonzero;stroke:none"
         id="path302" />
    </g>
    <g
       id="g304"
       transform="matrix(0.05558175,0,0,-0.05558175,64.412964,106.83583)"
       style="fill:#ffffff">
      <path
         d="m 0,0 c -0.021,4.117 3.477,5.441 6.154,5.674 7.013,0.609 11.575,4.919 16.428,9.082 4.702,4.035 9.471,7.998 14.327,11.845 0.811,0.641 2.219,0.53 3.351,0.766 l -0.204,0.146 C 32.828,20.45 25.679,13.304 18.306,6.396 16.916,5.094 14.666,4.158 12.764,4.063 8.072,3.831 3.955,2.107 -0.165,0.197 Z"
         style="fill:#ffffff;fill-opacity:1;fill-rule:nonzero;stroke:none"
         id="path306" />
    </g>
    <g
       id="g308"
       transform="matrix(0.05558175,0,0,-0.05558175,64.403792,106.82486)"
       style="fill:#ffffff">
      <path
         d="m 0,0 c -1.437,-3.194 -4.828,-2.611 -7.331,-3.665 -2.65,-1.114 -5.655,-1.392 -8.295,-2.525 -9.166,-3.94 -18.655,-3.264 -29.305,-2.777 2.99,2.754 5.715,2.134 8.168,2.393 5.16,0.545 10.413,0.602 15.469,1.636 5.664,1.158 11.129,3.266 16.735,4.753 1.47,0.39 3.144,0.013 4.724,-0.012 z"
         style="fill:#ffffff;fill-opacity:1;fill-rule:nonzero;stroke:none"
         id="path310" />
    </g>
    <g
       id="g312"
       transform="matrix(0.05558175,0,0,-0.05558175,61.791829,107.28668)"
       style="fill:#ffffff">
      <path
         d="m 0,0 c -2.659,-2.226 -5.506,-3.103 -8.669,-2.652 -5.309,0.754 -10.618,1.509 -15.918,2.32 -0.792,0.121 -1.679,0.381 -2.263,0.879 -0.521,0.444 -0.684,1.308 -1.005,1.987 0.561,0.211 1.168,0.679 1.677,0.59 3.449,-0.601 6.862,-1.43 10.319,-1.975 C -10.65,0.328 -5.542,-2.085 0,0"
         style="fill:#ffffff;fill-opacity:1;fill-rule:nonzero;stroke:none"
         id="path314" />
    </g>
    <g
       id="g316"
       transform="matrix(0.05558175,0,0,-0.05558175,67.124525,104.67742)"
       style="fill:#ffffff">
      <path
         d="M 0,0 C 2.98,5.599 5.576,11.483 11.307,15.025 8.987,8.931 4.612,4.386 -0.065,0.068 Z"
         style="fill:#ffffff;fill-opacity:1;fill-rule:nonzero;stroke:none"
         id="path318" />
    </g>
    <g
       id="g320"
       transform="matrix(0.05558175,0,0,-0.05558175,67.047234,104.75098)"
       style="fill:#ffffff">
      <path
         d="m 0,0 c -2.453,-3.329 -4.895,-6.658 -7.335,-10.001 l 0.2,-0.138 c -0.075,0.051 -0.137,0.088 -0.213,0.126 -3.191,2.015 -6.395,4.018 -9.587,6.033 1.765,-0.288 3.58,-0.438 5.206,-1.077 4.519,-1.827 4.444,-1.915 7.836,1.59 C -2.691,-2.228 -1.302,-1.151 0,0"
         style="fill:#ffffff;fill-opacity:1;fill-rule:nonzero;stroke:none"
         id="path322" />
    </g>
    <g
       id="g324"
       transform="matrix(0.05558175,0,0,-0.05558175,67.053475,104.74538)"
       style="fill:#ffffff">
      <path
         d="m 0,0 c -0.037,-0.038 -0.075,-0.063 -0.112,-0.101 0.024,0.038 0.062,0.088 0.087,0.125 z"
         style="fill:#ffffff;fill-opacity:1;fill-rule:nonzero;stroke:none"
         id="path326" />
    </g>
    <g
       id="g328"
       transform="matrix(0.05558175,0,0,-0.05558175,53.767647,104.40158)"
       style="fill:#ffffff">
      <path
         d="M 0,0 C 0.062,0.159 0.124,0.318 0.186,0.477 0.08,0.362 -0.026,0.247 -0.132,0.132 Z"
         style="fill:#ffffff;fill-opacity:1;fill-rule:nonzero;stroke:none"
         id="path330" />
    </g>
    <g
       id="g332"
       transform="matrix(0.05558175,0,0,-0.05558175,67.120891,104.67362)"
       style="fill:#ffffff">
      <path
         d="m 0,0 c -0.413,-0.421 -0.827,-0.842 -1.241,-1.263 -10e-4,10e-4 0.029,-0.03 0.03,-0.03 0.425,0.409 0.849,0.818 1.274,1.227 C 0.065,-0.068 0,0 0,0"
         style="fill:#ffffff;fill-opacity:1;fill-rule:nonzero;stroke:none"
         id="path334" />
    </g>
    <g
       id="g336"
       transform="matrix(0.05558175,0,0,-0.05558175,65.387329,108.22797)"
       style="fill:#ffffff">
      <path
         d="M 0,0 C 0.265,0.293 0.528,0.586 0.793,0.879 0.891,0.585 0.989,0.291 1.087,-0.003 l 0.161,0.172 -1.4,-0.006 z"
         style="fill:#ffffff;fill-opacity:1;fill-rule:nonzero;stroke:none"
         id="path338" />
    </g>
    <g
       id="g340"
       transform="matrix(0.05558175,0,0,-0.05558175,63.156783,110.51302)"
       style="fill:#ffffff">
      <path
         d="m 0,0 c -0.406,0.006 -0.812,0.013 -1.218,0.019 l -0.134,-0.181 c 0.488,-0.006 0.976,-0.012 1.463,-0.019 z"
         style="fill:#ffffff;fill-opacity:1;fill-rule:nonzero;stroke:none"
         id="path342" />
    </g>
    <g
       id="g344"
       transform="matrix(0.05558175,0,0,-0.05558175,71.244256,98.877325)"
       style="fill:#ffffff">
      <path
         d="m 0,0 c -0.062,0.226 -0.125,0.476 -0.2,0.714 -0.063,0.024 -0.112,0.037 -0.175,0.05 -0.013,0.075 -0.013,0.15 -0.025,0.237 -0.151,0.113 -0.313,0.238 -0.463,0.351 0.137,-0.013 0.35,0.012 0.4,-0.076 C -0.413,1.201 -0.4,1.102 -0.4,1.001 -0.351,0.964 -0.3,0.926 -0.25,0.889 -0.237,0.826 -0.213,0.776 -0.2,0.714 0.038,0.65 0.288,0.588 0.526,0.525 0.351,0.351 0.176,0.176 0,0 m -6.183,12.691 0.213,0.364 0.15,-0.388 z m -3.38,21.04 -0.425,0.251 0.464,0.163 z M -13.029,7.372 c -0.788,0.325 -1.577,0.814 -2.141,1.44 -0.187,0.2 0.275,1.001 0.439,1.527 0.888,-0.589 1.777,-1.19 2.866,-1.915 -0.426,-0.401 -0.964,-1.14 -1.164,-1.052 m -0.977,31.041 c 0.051,-0.188 0.088,-0.376 0.138,-0.563 0.251,-0.351 0.488,-0.702 0.714,-1.064 0,-0.038 -0.251,-0.251 -0.376,-0.376 -0.113,0.476 -0.225,0.964 -0.338,1.44 -0.1,0.137 -0.2,0.275 -0.3,0.413 l -0.676,0.675 c 0.275,-0.174 0.563,-0.35 0.838,-0.525 M -52.093,0.263 c 0.175,0.025 0.351,0.062 0.526,0.088 0.062,-0.101 0.113,-0.213 0.175,-0.326 -0.225,0.076 -0.463,0.151 -0.701,0.238 m -16.721,-1.602 c 0.751,0.638 1.489,1.289 2.227,1.94 0.188,-0.289 0.375,-0.576 0.576,-0.864 -0.939,-0.363 -1.865,-0.714 -2.803,-1.076 m -1.678,2.666 c -0.151,0.025 -0.3,0.15 -0.438,0.237 0.162,0.026 0.338,0.113 0.5,0.088 0.151,-0.025 0.301,-0.137 0.451,-0.225 -0.175,-0.037 -0.35,-0.113 -0.513,-0.1 m 52.994,9.95 c -0.05,0.226 -0.112,0.451 -0.175,0.676 0.226,-0.088 0.45,-0.187 0.676,-0.288 -0.163,-0.125 -0.325,-0.25 -0.501,-0.388 m -9.838,36.06 c -0.087,-0.025 -0.225,0.301 -0.35,0.476 0.338,0.1 0.676,0.262 1.027,0.3 0.125,0.013 0.274,-0.275 0.413,-0.425 -0.363,-0.125 -0.714,-0.289 -1.09,-0.351 m -29.388,12.93 c -2.314,1.726 -4.891,3.653 -7.481,5.579 l 0.134,0.153 c -0.047,-0.047 -0.094,-0.095 -0.142,-0.142 0.003,-0.003 0.005,-0.006 0.007,-0.01 -10e-4,0.001 -0.002,0.001 -0.003,0.002 -0.304,-0.294 -0.608,-0.599 -0.913,-0.904 0.304,0.305 0.606,0.609 0.909,0.912 -0.634,1 -1.08,2.22 -1.941,2.952 -2.888,2.451 -6.021,4.616 -8.88,7.097 -3.079,2.673 -5.739,5.865 -8.971,8.319 -4.768,3.621 -10.193,6.417 -14.758,10.255 -4.731,3.979 -9.972,5.733 -15.907,6.218 -2.053,0.167 -4.126,0.408 -6.116,0.91 -0.18,0.046 -0.358,0.097 -0.532,0.148 -5.629,2.019 -11.32,3.865 -17.074,5.497 -3.275,0.929 -6.568,1.793 -9.878,2.593 -2.989,0.722 -6.316,1.884 -9.415,1.295 -1.329,-0.253 -2.514,-0.891 -3.782,-1.331 -1.659,-0.577 -2.821,-0.222 -4.394,0.437 -3.084,1.294 -5.91,1.035 -9.159,0.616 -3.172,-0.408 -6.347,-0.83 -9.491,-1.427 -3.251,-0.619 -6.37,-1.602 -9.565,-2.429 -3.777,-0.978 -7.506,-0.472 -11.346,-0.677 -3.05,-0.162 -5.974,-0.886 -8.779,-2.019 -0.077,-0.02 -0.154,-0.04 -0.23,-0.062 -3.604,-0.938 -7.209,-1.902 -10.688,-3.204 -1.665,-0.626 -3.63,-1.816 -4.394,-3.292 -2.24,-4.394 -5.682,-4.969 -9.95,-4.231 -4.206,0.739 -7.697,-0.513 -10.689,-3.692 -2.566,-2.716 -5.645,-4.956 -8.261,-7.622 -5.483,-5.583 -12.804,-9.4 -16.246,-16.923 -2.528,0.176 -3.23,-3.942 -6.333,-2.591 -4.006,1.728 -4.945,4.494 -1.69,8.286 2.303,2.692 -0.826,2.266 -1.176,3.355 1.514,0.538 3.004,1.076 4.518,1.614 0.037,0.013 0.087,0.026 0.125,0.038 l -0.038,0.012 c 0.977,0.626 2.04,1.152 2.892,1.915 7.034,6.321 14.105,12.592 20.977,19.063 4.193,3.943 8.911,5.996 14.682,5.469 1.915,-0.175 3.529,-0.037 4.981,1.702 3.329,4.019 7.998,5.821 12.93,7.023 1.715,0.413 3.517,0.625 5.194,1.164 0.05,0.012 0.087,0.024 0.138,0.037 5.694,1.69 10.063,7.56 16.134,7.222 3.179,-0.188 6.295,-1.126 9.474,-1.214 4.106,-0.112 8.098,1.214 12.141,1.977 6.684,1.265 13.556,1.027 20.326,0.451 17.474,-1.477 26.961,-5.107 43.532,-10.751 0.039,-0.013 0.088,-0.026 0.125,-0.038 1.403,-0.5 2.905,-0.701 4.62,-0.401 0.187,0.038 0.4,0.038 0.587,0.051 0.226,-0.301 0.463,-0.689 0.689,-0.677 6.922,0.126 12.078,-3.817 17.16,-7.684 11.703,-8.912 23.293,-17.999 34.921,-27.036 3.191,-2.478 6.658,-4.681 9.174,-8.198 -2.929,-2.091 -5.395,-3.843 -8.148,-5.807 m -11.165,-6.371 c -9.799,9.112 -19,17.573 -28.087,26.146 -1.689,1.59 -3.253,2.104 -5.582,1.665 -6.07,-1.151 -11.214,0.764 -14.669,5.92 -1.802,2.704 -4.356,3.404 -6.997,3.918 -5.256,1.577 -11.139,0.501 -16.609,0.513 -1.89,0 -3.768,0.126 -5.582,0.626 -1.853,0.501 -3.267,1.464 -4.844,2.491 -1.414,0.913 -2.941,1.476 -4.643,1.388 -1.941,-0.099 -3.793,-1.038 -5.745,-0.9 -3.781,0.263 -6.922,3.066 -10.639,3.73 -1.553,0.262 -3.167,0.3 -4.682,-0.213 -0.763,-0.25 -1.351,-0.751 -2.064,-1.089 -0.989,-0.463 -1.841,0.125 -2.867,0.426 -3.692,1.076 -7.81,1.013 -11.453,-0.226 -1.714,-0.575 -3.292,-1.452 -4.906,-2.253 -1.94,-0.976 -3.843,-1.276 -5.995,-1.401 -8.962,-0.538 -17.511,-3.042 -25.171,-7.774 h -0.013 c -0.738,-0.338 -1.463,-0.725 -2.19,-1.151 -12.754,-7.523 -24.006,-16.984 -35.233,-26.51 -3.981,-3.379 -4.093,-3.279 -8.799,0.951 3.042,3.13 5.971,6.359 9.137,9.326 5.632,5.269 11.54,10.25 17.085,15.595 3.041,2.942 5.87,4.857 10.463,3.605 3.805,-1.027 7.823,-0.013 10.001,3.492 2.603,4.181 6.346,5.644 10.751,6.608 1.62,0.346 3.177,1.206 4.59,2.145 2.489,0.998 5.126,1.59 7.813,1.677 3.283,0.106 6.53,-0.242 9.788,0.347 3.028,0.547 5.934,1.656 8.936,2.332 3.175,0.716 6.396,1.211 9.62,1.639 3.117,0.414 6.203,1.115 9.201,-0.121 2.777,-1.146 4.902,-1.387 7.74,-0.244 1.347,0.543 2.597,1.07 4.082,0.978 1.583,-0.097 3.185,-0.595 4.723,-0.958 3.216,-0.759 6.418,-1.577 9.604,-2.457 5.709,-1.576 11.357,-3.361 16.946,-5.32 0.194,-0.832 0.789,-1.43 1.888,-1.623 3.037,-0.534 6.121,-1.173 9.179,-1.138 4.136,0.047 7.723,-1.027 11.107,-3.334 4.619,-3.147 9.348,-6.133 14.029,-9.188 l -0.101,-0.145 1.526,-0.009 c 0.609,-0.922 1.097,-1.988 1.907,-2.671 6.385,-5.376 12.843,-10.668 19.278,-15.985 -0.002,-0.002 -0.004,-0.005 -0.007,-0.007 l -0.125,-0.125 0.016,0.011 c -0.004,-0.003 -0.007,-0.006 -0.01,-0.009 l 0.033,0.028 0.111,0.083 c 1.702,-2.204 3.417,-4.406 5.395,-6.959 -3.267,-1.578 -5.971,-2.879 -7.936,-3.83 m -218.285,17.597 c -0.263,0.176 -0.313,0.677 -0.451,1.039 0.301,0.101 0.727,0.351 0.864,0.239 0.287,-0.226 0.425,-0.652 0.625,-1.002 -0.362,-0.113 -0.838,-0.401 -1.038,-0.276 m 20.652,26.498 c 0.062,-0.038 0.075,-0.188 0.113,-0.288 -0.163,-0.051 -0.314,-0.088 -0.476,-0.125 -0.038,0.175 -0.075,0.35 -0.113,0.526 0.15,-0.039 0.325,-0.05 0.476,-0.113 m 44.545,22.679 c 0.251,-0.412 0.714,-0.838 0.689,-1.251 -0.025,-0.488 -0.45,-0.964 -0.889,-1.803 -0.288,0.852 -0.613,1.352 -0.563,1.816 0.038,0.437 0.488,0.826 0.763,1.238 m 2.204,-3.654 c 0.125,0 0.25,-0.239 0.375,-0.375 -0.138,-0.114 -0.276,-0.339 -0.401,-0.339 -0.138,0.012 -0.25,0.238 -0.375,0.376 0.125,0.125 0.263,0.338 0.401,0.338 m 96.175,-0.364 c 0.113,0.138 0.263,0.426 0.338,0.401 0.325,-0.087 0.626,-0.25 0.939,-0.401 -0.138,-0.125 -0.287,-0.375 -0.375,-0.35 -0.314,0.063 -0.601,0.225 -0.902,0.35 m 1.565,10.414 c 0.112,-0.137 0.238,-0.275 0.35,-0.413 -0.137,-0.125 -0.288,-0.338 -0.413,-0.325 -0.125,0.013 -0.238,0.25 -0.35,0.388 0.137,0.112 0.275,0.225 0.413,0.35 m 7.76,-12.266 c 0.476,-0.676 1.026,-1.364 1.464,-2.127 0.063,-0.088 -0.413,-0.488 -0.638,-0.751 -0.726,0.713 -1.451,1.439 -2.165,2.152 0.3,0.163 0.613,0.325 1.339,0.726 m 3.442,-4.606 c -0.088,-0.088 -0.163,-0.213 -0.263,-0.25 -0.025,-0.012 -0.05,-0.012 -0.075,-0.012 0.112,0.087 0.226,0.174 0.338,0.262 m 2.967,12.154 c 0.437,0.438 0.876,0.888 1.326,1.327 0.125,0.012 0.238,0.012 0.363,0.037 0.125,0.125 0.237,0.263 0.363,0.388 -0.062,-0.113 -0.087,-0.3 -0.175,-0.338 -0.063,-0.025 -0.125,-0.037 -0.188,-0.05 -0.062,-0.075 -0.138,-0.138 -0.2,-0.213 -0.451,-0.426 -0.901,-0.851 -1.352,-1.289 -0.012,-0.025 -0.025,-0.05 -0.038,-0.075 0.063,-0.113 0.114,-0.226 0.101,-0.313 -0.101,-0.539 -0.263,-1.064 -0.389,-1.59 -0.175,0.088 -0.475,0.238 -0.475,0.276 0.225,0.551 0.501,1.089 0.763,1.627 -0.024,0.075 -0.062,0.137 -0.099,0.213 m 5.419,-8.887 c 0.3,-0.213 0.613,-0.426 0.914,-0.639 -0.276,-0.224 -0.639,-0.7 -0.814,-0.637 -0.413,0.15 -0.725,0.563 -1.076,0.863 z M -302.583,27.336 c -0.088,0.125 -0.275,0.275 -0.263,0.4 0,0.113 0.213,0.226 0.325,0.338 0.1,-0.137 0.289,-0.275 0.276,-0.4 0,-0.112 -0.213,-0.226 -0.338,-0.338 m -1.001,22.079 c -0.163,0.188 -0.363,0.362 -0.464,0.575 -0.024,0.075 0.226,0.276 0.351,0.413 0.113,-0.162 0.213,-0.312 0.325,-0.463 -0.075,-0.174 -0.149,-0.35 -0.212,-0.525 m 0,7.134 -0.188,-0.25 -0.138,0.288 z m -19.301,-23.043 c -0.075,-0.087 -0.137,-0.188 -0.213,-0.275 -0.237,-0.188 -0.475,-0.376 -0.701,-0.563 0.189,0.237 0.376,0.488 0.564,0.738 0.113,0.037 0.225,0.063 0.35,0.1 0.25,0.326 0.514,0.651 0.764,0.976 0.2,-0.187 0.4,-0.387 0.6,-0.575 -0.462,-0.125 -0.914,-0.262 -1.364,-0.401 m -8.211,-36.009 c -0.075,0.037 -0.087,0.2 -0.125,0.313 0.176,0.038 0.388,0.15 0.501,0.087 0.1,-0.049 0.1,-0.313 0.138,-0.475 -0.176,0.024 -0.363,0.013 -0.514,0.075 M -0.138,10.839 c -2.014,2.854 -3.091,5.846 -2.591,9.35 0.514,3.642 -0.413,7.022 -1.915,10.289 -4.418,9.587 -8.661,18.961 -16.283,26.96 -9.85,10.326 -17.799,22.442 -28.863,31.742 -1.802,1.513 -3.542,3.841 -3.992,6.045 -0.576,2.84 -2.191,4.38 -4.206,5.833 -4.732,3.417 -9.813,6.395 -14.181,10.213 -4.906,4.305 -9.926,6.583 -16.51,4.869 -2.453,-0.639 -5.119,-0.388 -6.533,2.315 -2.916,5.545 -8.185,7.322 -13.692,8.837 -4.069,1.113 -8.112,2.315 -12.166,3.504 -0.038,0.013 -0.076,0.025 -0.114,0.038 -3.579,1.289 -6.545,2.128 -9.111,2.653 -0.025,0.013 -0.051,0.013 -0.075,0.026 -9.175,1.851 -13.231,-0.213 -21.653,0.463 -5.457,0.437 -10.189,5.131 -15.671,5.031 -6.434,-0.112 -12.679,-1.326 -19.113,-1.126 -10.776,0.325 -19.312,1.264 -27.073,-3.693 -0.037,0 -0.075,-0.025 -0.112,-0.062 -0.514,-0.275 -1.001,-0.613 -1.452,-1.002 -0.013,0 -0.013,-0.013 -0.025,-0.024 -0.063,-0.038 -0.113,-0.076 -0.176,-0.126 v -0.025 c -0.663,-0.576 -1.276,-1.252 -1.865,-1.966 -3.704,-4.493 -8.21,-6.17 -14.093,-6.282 -5.695,-0.113 -11.464,-1.139 -16.334,-5.007 -4.017,-3.191 -8.31,-6.121 -12.742,-8.699 -10.113,-5.883 -19.475,-12.704 -27.885,-20.827 -3.268,-3.142 -5.108,-6.533 -3.63,-11.452 1.176,-3.893 -0.739,-6.334 -4.682,-7.385 -1.188,-0.325 -2.478,-0.451 -3.704,-0.376 -3.481,0.238 -5.921,-1.113 -7.774,-4.105 -3.892,-6.271 -7.998,-12.404 -11.953,-18.637 -0.4,-0.65 -0.4,-1.552 -0.575,-2.341 V 45.86 c -0.451,-0.288 -1.026,-0.526 -1.264,-0.951 -5.019,-8.674 -9.15,-17.749 -11.616,-27.499 -0.375,-1.476 -0.224,-3.266 0.226,-4.743 1.515,-5.032 0.764,-9.413 -2.841,-13.33 -1.102,-1.202 -2.203,-2.591 -2.728,-4.093 -1.102,-3.079 0.362,-4.932 3.553,-4.568 2.879,0.312 5.721,0.988 8.562,1.589 0.05,0.012 -0.138,1.164 -0.213,1.79 0.826,-0.364 1.678,-0.676 2.466,-1.102 1.965,-1.051 5.732,-0.338 6.496,1.277 0.863,1.79 -0.25,3.48 -3.092,4.744 -2.466,1.088 -3.091,3.329 -1.627,5.682 1.276,2.077 2.991,4.043 3.63,6.309 0.938,3.342 0.839,6.972 1.677,10.363 0.513,2.09 -0.438,3.017 -1.714,4.068 1.376,0.776 3.166,1.226 4.017,2.377 1.314,1.778 2.015,4.031 2.929,6.096 3.855,8.749 10.877,15.133 16.847,22.267 3.668,4.368 6.421,4.556 12.353,1.627 -0.988,-1.352 -1.939,-2.666 -2.903,-3.967 -5.708,-7.735 -13.305,-13.956 -17.548,-22.881 -3.191,-6.733 -7.423,-12.978 -6.759,-20.965 0.151,-1.764 -0.475,-3.592 -0.751,-5.406 5.47,0.65 5.557,0.65 5.533,5.694 -0.063,10.414 5.269,18.6 11.152,26.398 4.844,6.421 10.263,12.39 15.745,18.936 1.715,-0.637 3.942,-1.464 6.358,-2.365 -0.675,-0.988 -1.001,-1.515 -1.377,-2.003 -3.016,-3.979 -6.257,-7.822 -9.011,-11.977 -2.741,-4.144 -4.919,-8.662 -7.51,-12.917 -2.44,-4.031 -2.791,-8.85 -5.095,-12.955 -0.888,-1.577 -1.05,-3.58 -1.451,-5.407 -0.376,-1.753 0.738,-2.065 2.165,-2.091 1.79,-0.049 2.441,0.852 2.916,2.516 1.052,3.743 2.141,7.523 3.681,11.09 4.631,10.726 10.413,20.74 18.486,29.326 2.04,2.178 3.867,2.516 6.583,1.289 2.541,-1.151 5.332,-1.777 8.036,-2.578 -3.042,2.027 -6.095,4.067 -9.325,6.232 0.626,0.764 1.077,1.428 1.628,1.979 8.974,9.061 19.024,16.809 29.351,24.244 1.865,1.339 3.755,2.49 5.732,3.392 0.325,-0.026 0.676,0.049 1.039,0.275 0.25,0.163 0.513,0.313 0.775,0.463 4.457,2.653 9.3,4.606 14.357,5.72 2.128,0.488 4.306,0.813 6.496,0.976 1.84,0.138 3.68,0.151 5.495,0.501 1.89,0.375 3.592,1.264 5.294,2.14 3.329,1.727 6.946,2.541 10.69,1.852 1.676,-0.312 3.341,-1.289 5.056,-1.239 1.815,0.064 2.916,1.665 4.706,1.79 3.555,0.263 6.734,-2.328 9.976,-3.354 1.677,-0.526 3.391,-0.7 5.119,-0.425 1.64,0.25 3.542,1.176 5.182,0.588 1.502,-0.538 2.741,-1.84 4.18,-2.529 1.677,-0.8 3.442,-1.276 5.282,-1.527 7.522,-1.051 16.471,2.354 23.155,-2.352 0.451,-0.314 0.901,-0.389 1.29,-0.301 0.926,-0.801 1.777,-1.752 2.615,-2.817 2.378,-3.015 6.008,-5.081 9.851,-4.605 6.646,0.826 10.952,-2.466 15.107,-6.797 2.316,-2.391 5.044,-4.368 7.435,-6.696 4.43,-4.318 8.749,-8.749 13.48,-13.518 -3.655,-2.328 -6.609,-4.192 -9.487,-6.032 -2.229,2.428 -3.868,4.956 -6.171,6.508 -3.755,2.528 -7.923,4.443 -11.966,6.521 -1.151,0.588 -2.49,0.826 -3.742,1.24 3.004,-2.892 6.171,-5.283 9.638,-7.11 4.643,-2.453 7.559,-6.171 10.1,-10.664 2.628,-4.682 5.67,-9.274 9.313,-13.192 3.366,-3.605 5.907,-7.46 7.559,-12.016 0.914,-2.541 1.677,-5.144 2.679,-7.647 0.312,-0.801 1.151,-1.39 1.739,-2.066 -0.15,3.667 -1.827,6.784 -2.352,10.088 -0.977,6.171 -4.357,10.577 -8.637,14.757 -3.367,3.305 -6.32,7.059 -7.598,11.953 2.253,1.114 4.269,2.153 6.322,3.142 4.33,2.103 4.318,2.078 7.622,-1.828 1.477,-1.751 3.167,-3.341 4.481,-5.207 4.956,-7.109 11.902,-12.829 14.857,-21.339 0.738,-2.116 1.815,-4.119 2.866,-6.471 1.915,3.542 1.827,3.504 0.964,5.995 -3.768,10.977 -12.291,18.624 -19.151,27.423 -0.45,0.589 -1.451,0.701 -2.102,1.164 -2.028,1.439 -2.077,3.88 0.088,4.744 4.155,1.652 8.498,4.055 12.34,-0.776 0.376,-0.489 1.278,-0.551 3.004,-1.227 -1.902,3.079 -3.141,5.095 -4.392,7.135 7.647,4.03 10.638,3.404 14.968,-2.941 6.009,-8.799 11.278,-17.987 14.946,-28.05 1.651,-4.531 3.454,-9.012 5.206,-13.505 -1.89,-1.302 -0.25,-2.804 -0.05,-4.243 0.338,-2.591 0.676,-5.195 1.002,-7.786 -2.166,0.213 -4.331,0.439 -6.509,0.614 -8.036,0.651 -16.058,1.314 -24.094,1.889 -15.758,1.153 -31.516,1.829 -47.299,0.589 -5.244,-0.413 -7.535,-1.189 -10.589,-3.255 12.216,-0.538 24.244,-1.05 36.26,-1.564 0.038,0.038 0.087,0.075 0.125,0.101 3.855,-0.501 7.698,-1.214 11.552,-1.453 6.997,-0.413 13.881,-1.727 21.003,-1.601 6.697,0.125 13.43,-1.803 20.164,-2.767 0.7,-0.099 2.103,0.314 2.103,0.364 -0.413,3.804 4.255,2.627 5.094,5.119 1.114,-0.088 2.741,0.187 1.714,-1.778 -0.512,-0.976 -1.827,-1.527 -2.829,-2.315 3.681,-2.567 6.834,-3.805 9.926,-3.455 0.914,0.1 2.266,1.039 2.491,1.852 1.778,6.421 1.752,12.755 -2.291,18.437"
         style="fill:#ffffff;fill-opacity:1;fill-rule:nonzero;stroke:none"
         id="path346" />
    </g>
    <g
       id="g348"
       transform="matrix(0.05558175,0,0,-0.05558175,57.110094,96.24832)"
       style="fill:#ffffff">
      <path
         d="m 0,0 c -0.226,0.074 -0.45,0.138 -0.676,0.2 0.175,-0.113 0.351,-0.238 0.526,-0.35 z"
         style="fill:#ffffff;fill-opacity:1;fill-rule:nonzero;stroke:none"
         id="path350" />
    </g>
    <g
       id="g352"
       transform="matrix(0.05558175,0,0,-0.05558175,64.777881,99.78243)"
       style="fill:#ffffff">
      <path
         d="M 0,0 0.488,0.15 0.062,0.413 Z"
         style="fill:#ffffff;fill-opacity:1;fill-rule:nonzero;stroke:none"
         id="path354" />
    </g>
    <g
       id="g356"
       transform="matrix(0.05558175,0,0,-0.05558175,56.74241,98.681866)"
       style="fill:#ffffff">
      <path
         d="m 0,0 c -4.983,-0.007 -9.982,0.139 -14.947,-0.192 -4.69,-0.313 -9.327,-1.453 -14.016,-1.704 -8.836,-0.474 -17.692,-0.571 -26.383,-0.82 -0.228,-2.5 -0.405,-4.43 -0.653,-7.136 11.769,1.093 23.041,2.044 34.288,3.234 3.88,0.41 7.675,1.881 11.545,2.056 11.817,0.538 23.653,0.658 35.479,1.015 0.999,0.03 1.98,0.62 2.969,0.95 -4.62,1.505 -9.112,2.204 -13.63,2.454 C 9.78,0.127 4.886,0.007 0,0"
         style="fill:#ffffff;fill-opacity:1;fill-rule:nonzero;stroke:none"
         id="path358" />
    </g>
    <g
       id="g360"
       transform="matrix(0.05558175,0,0,-0.05558175,68.772224,96.71235)"
       style="fill:#ffffff">
      <path
         d="m 0,0 c 4.312,-7.533 8.374,-15.162 10.412,-23.712 0.282,-1.185 1.495,-2.149 2.437,-3.433 0.459,0.868 0.828,1.233 0.765,1.497 C 11.325,-15.908 7.399,-6.855 2.063,1.595 1.844,1.941 1.63,2.417 1.304,2.541 0.802,2.73 0.036,2.896 -0.305,2.646 -0.621,2.414 -0.624,1.615 -0.579,1.081 -0.548,0.708 -0.205,0.359 0,0"
         style="fill:#ffffff;fill-opacity:1;fill-rule:nonzero;stroke:none"
         id="path362" />
    </g>
    <g
       id="g364"
       transform="matrix(0.05558175,0,0,-0.05558175,64.756169,95.007501)"
       style="fill:#ffffff">
      <path
         d="M 0,0 C 0.053,0.052 0.104,0.103 0.157,0.154 L -0.021,0.013 c -5.624,5.456 -13.205,6.268 -20.212,8.395 -0.253,0.076 -0.605,-0.171 -1.052,-0.55 -2.877,0.372 -5.712,1.004 -8.476,1.924 -1.554,0.518 -3.196,1.439 -4.883,1.239 -0.939,-0.113 -1.669,-0.653 -2.644,-0.538 -1.016,0.121 -2.049,0.666 -3.012,0.977 -7.148,2.305 -14.82,1.934 -22.191,1.211 -3.873,-0.38 -7.591,-0.713 -11.222,-2.196 -3.598,-1.471 -7.401,-1.011 -11.075,-2.098 -3.469,-1.026 -6.507,-2.999 -9.481,-4.997 -1.534,-1.031 -3.093,-2.056 -4.895,-2.549 -1.632,-0.447 -3.334,-0.513 -5.005,-0.722 -1.711,-0.214 -3.429,-0.546 -4.935,-1.432 -1.619,-0.953 -2.624,-2.48 -3.901,-3.802 -2.545,-2.637 -6.786,-4.234 -6.539,-8.573 10e-4,-0.02 0.012,-0.032 0.013,-0.051 -1.052,-1.091 -2.727,-1.401 -4.668,-1.517 -3.017,-0.177 -5.394,-1.786 -7.442,-3.992 -1.502,-1.619 -3.19,-3.066 -4.801,-4.583 -3.119,-4.366 -6.608,-8.52 -9.254,-13.155 -3.488,-6.108 -5.802,-12.858 -10.658,-18.218 -1.796,-1.984 -2.291,-4.568 -0.326,-7.319 1.582,2.839 2.885,5.278 4.284,7.661 1.991,3.391 4.51,6.55 5.992,10.143 3.537,8.578 9.118,15.581 15.459,22.158 2.417,2.507 5.037,4.181 8.538,4.626 2.018,0.257 4.627,0.421 5.761,1.699 0.809,0.912 0.361,2.937 0.198,4.717 0.552,0.872 1.408,1.583 2.263,2.225 1.301,0.977 2.536,1.912 3.609,3.147 1.085,1.246 2.061,2.489 3.647,3.111 1.574,0.618 3.299,0.709 4.961,0.892 3.311,0.362 5.965,1.365 8.739,3.221 2.945,1.972 5.915,4.003 9.369,4.969 3.416,0.956 6.97,0.496 10.317,1.823 1.671,0.662 3.266,1.31 5.048,1.62 1.977,0.346 4.006,0.493 6.004,0.689 7.154,0.701 14.585,1.116 21.526,-1.122 1.597,-0.515 3.19,-1.326 4.91,-1.01 1.303,0.239 1.856,0.637 3.211,0.206 0.907,-0.288 1.785,-0.67 2.692,-0.965 3.5,-1.14 7.127,-1.811 10.79,-2.12 1.471,-0.627 2.815,-1.135 4.169,-1.178 3.452,-0.109 6.183,-1.268 8.922,-3.153 1.455,-1.002 3.356,-1.356 5.056,-2.004 l -0.089,-0.101 c 0.033,0.032 0.066,0.063 0.098,0.095 3.478,-2.384 6.931,-4.81 10.474,-7.095 0.396,-0.256 1.306,0.285 1.979,0.457 -0.214,0.528 -0.274,1.305 -0.665,1.545 C 7.088,-4.131 3.536,-2.079 0,0"
         style="fill:#ffffff;fill-opacity:1;fill-rule:nonzero;stroke:none"
         id="path366" />
    </g>
    <g
       id="g368"
       transform="matrix(0.05558175,0,0,-0.05558175,69.610348,98.61717)"
       style="fill:#ffffff">
      <path
         d="M 0,0 C 0.577,2.824 0.479,4.965 -3.512,6.249 -2.856,3.313 -3.013,1.02 0,0"
         style="fill:#ffffff;fill-opacity:1;fill-rule:nonzero;stroke:none"
         id="path370" />
    </g>
    <g
       id="g372"
       transform="matrix(0.05558175,0,0,-0.05558175,68.961763,98.432021)"
       style="fill:#ffffff">
      <path
         d="M 0,0 C -0.897,0.814 -1.553,1.408 -2.207,2.002 -2.55,1.36 -3.275,0.624 -3.145,0.101 -2.952,-0.674 -2.152,-1.298 -1.61,-1.985 -1.167,-1.438 -0.724,-0.892 0,0"
         style="fill:#ffffff;fill-opacity:1;fill-rule:nonzero;stroke:none"
         id="path374" />
    </g>
    <g
       id="g376"
       transform="matrix(0.05558175,0,0,-0.05558175,68.498006,96.298745)"
       style="fill:#ffffff">
      <path
         d="M 0,0 C 0.189,-0.291 0.379,-0.582 0.569,-0.873 L 1.12,-0.498 C 0.902,-0.254 0.685,-0.009 0.466,0.234 0.31,0.156 0.154,0.078 0,0"
         style="fill:#ffffff;fill-opacity:1;fill-rule:nonzero;stroke:none"
         id="path378" />
    </g>
    <g
       id="g380"
       transform="matrix(0.05558175,0,0,-0.05558175,68.676585,96.352592)"
       style="fill:#ffffff">
      <path
         d="m 0,0 c -0.127,-0.352 -0.254,-0.703 -0.466,-1.293 0.375,-0.206 0.783,-0.431 1.192,-0.654 0.145,0.287 0.489,0.711 0.401,0.839 C 0.834,-0.682 0.388,-0.361 0,0"
         style="fill:#ffffff;fill-opacity:1;fill-rule:nonzero;stroke:none"
         id="path382" />
    </g>
    <g
       id="g384"
       transform="matrix(0.05558175,0,0,-0.05558175,57.110367,96.248376)"
       style="fill:#ffffff">
      <path
         d="M 0,0 -0.154,-0.154 C 0.23,-0.645 0.615,-1.135 1,-1.624 c 0.039,0.036 0.078,0.071 0.117,0.108 0.009,0.013 0.019,0.026 0.028,0.038 C 0.763,-0.984 0.382,-0.492 0,0"
         style="fill:#ffffff;fill-opacity:1;fill-rule:nonzero;stroke:none"
         id="path386" />
    </g>
    <g
       id="g388"
       transform="matrix(0.05558175,0,0,-0.05558175,53.40099,101.86441)"
       style="fill:#ffffff">
      <path
         d="M 0,0 C 3.771,0.378 5.656,0.562 9.428,0.916 6.525,11.361 5.058,16.58 2.089,27.013 1.221,16.207 0.803,10.805 0,0 m 15.102,-19.7 c -1.152,4.242 -1.731,6.363 -2.894,10.603 -5.205,-0.483 -7.807,-0.736 -13.009,-1.264 -0.324,-4.385 -0.483,-6.577 -0.797,-10.962 -4.375,-0.45 -6.561,-0.684 -10.933,-1.166 1.801,20.22 3.731,40.429 5.851,60.619 6.466,0.661 9.701,0.974 16.172,1.568 5.939,-19.412 11.752,-38.864 17.38,-58.368 -4.709,-0.393 -7.063,-0.6 -11.77,-1.03"
         style="fill:#ffffff;fill-opacity:1;fill-rule:nonzero;stroke:none"
         id="path390" />
    </g>
    <g
       id="g392"
       transform="matrix(0.05558175,0,0,-0.05558175,55.265208,102.87199)"
       style="fill:#ffffff">
      <path
         d="m 0,0 c 4.374,12.622 6.616,18.926 11.212,31.517 -6.025,11.232 -9.088,16.834 -15.31,28.006 5.175,0.407 7.763,0.599 12.94,0.962 3.61,-7.265 5.397,-10.903 8.933,-18.19 2.663,7.69 4.015,11.532 6.756,19.211 4.631,0.277 6.947,0.407 11.579,0.65 C 31.4,50.268 29.095,44.314 24.587,32.392 30.785,20.509 33.829,14.551 39.809,2.606 34.859,2.349 32.386,2.21 27.439,1.911 23.718,9.849 21.834,13.813 18.023,21.727 15.217,13.377 13.836,9.198 11.12,0.836 6.672,0.519 4.447,0.351 0,0"
         style="fill:#ffffff;fill-opacity:1;fill-rule:nonzero;stroke:none"
         id="path394" />
    </g>
    <g
       id="g396"
       transform="matrix(0.05558175,0,0,-0.05558175,58.000381,102.70161)"
       style="fill:#ffffff">
      <path
         d="m 0,0 c -0.907,19.866 -1.813,39.732 -2.721,59.6 13.075,0.596 19.617,0.826 32.7,1.145 L 30.232,50.35 C 22.013,50.148 17.902,50.021 9.686,49.709 9.895,44.19 9.999,41.431 10.208,35.912 c 6.487,0.245 9.732,0.351 16.222,0.527 0.112,-4.157 0.169,-6.236 0.282,-10.394 -6.445,-0.175 -9.668,-0.279 -16.111,-0.524 0.222,-5.859 0.333,-8.79 0.554,-14.649 8.01,0.304 12.016,0.429 20.028,0.624 C 31.284,7.338 31.335,5.259 31.437,1.102 18.858,0.794 12.57,0.573 0,0"
         style="fill:#ffffff;fill-opacity:1;fill-rule:nonzero;stroke:none"
         id="path398" />
    </g>
    <g
       id="g400"
       transform="matrix(0.05558175,0,0,-0.05558175,61.334963,102.61683)"
       style="fill:#ffffff">
      <path
         d="m 0,0 c -0.104,19.887 -0.208,39.773 -0.312,59.661 4.809,0.025 7.212,0.028 12.021,0.016 -0.024,-9.683 -0.037,-14.524 -0.062,-24.206 5.072,-0.014 7.608,-0.031 12.679,-0.086 0.106,9.682 0.158,14.523 0.264,24.205 4.808,-0.052 7.213,-0.088 12.02,-0.178 L 35.497,-0.239 c -4.623,0.087 -6.935,0.121 -11.558,0.171 0.11,10.022 0.165,15.034 0.274,25.056 C 19.176,25.043 16.657,25.06 11.62,25.072 11.595,15.05 11.582,10.038 11.557,0.015 6.934,0.026 4.623,0.023 0,0"
         style="fill:#ffffff;fill-opacity:1;fill-rule:nonzero;stroke:none"
         id="path402" />
    </g>
    <g
       id="g404"
       transform="matrix(0.05558175,0,0,-0.05558175,63.995883,102.64581)"
       style="fill:#ffffff">
      <path
         d="m 0,0 1.611,59.64 c 13.083,-0.354 19.623,-0.6 32.699,-1.23 -0.202,-4.155 -0.301,-6.232 -0.501,-10.387 -8.216,0.396 -12.325,0.567 -20.543,0.853 -0.192,-5.52 -0.288,-8.279 -0.481,-13.799 6.489,-0.226 9.734,-0.356 16.22,-0.651 -0.189,-4.155 -0.283,-6.233 -0.472,-10.387 -6.442,0.293 -9.664,0.422 -16.109,0.647 C 12.221,18.825 12.118,15.895 11.914,10.034 19.925,9.756 23.93,9.59 31.937,9.203 31.736,5.049 31.637,2.972 31.437,-1.183 18.865,-0.576 12.578,-0.34 0,0"
         style="fill:#ffffff;fill-opacity:1;fill-rule:nonzero;stroke:none"
         id="path406" />
    </g>
    <g
       id="g408"
       transform="matrix(0.05558175,0,0,-0.05558175,67.068243,101.61359)"
       style="fill:#ffffff">
      <path
         d="M 0,0 C 3.779,-0.239 5.668,-0.365 9.445,-0.629 8.282,10.148 7.684,15.537 6.453,26.313 3.839,15.793 2.548,10.53 0,0 m 11.688,-21.894 c -0.446,4.373 -0.671,6.56 -1.128,10.933 -5.213,0.37 -7.82,0.544 -13.035,0.868 -1.032,-4.273 -1.545,-6.411 -2.566,-10.686 -4.387,0.267 -6.58,0.392 -10.968,0.627 5.062,19.659 10.25,39.285 15.624,58.861 6.482,-0.399 9.722,-0.616 16.2,-1.083 2.702,-20.12 5.272,-40.258 7.654,-60.418 -4.711,0.378 -7.068,0.558 -11.781,0.898"
         style="fill:#ffffff;fill-opacity:1;fill-rule:nonzero;stroke:none"
         id="path410" />
    </g>
    <g
       id="g412"
       transform="matrix(0.05558175,0,0,-0.05558175,69.593627,102.40698)"
       style="fill:#ffffff">
      <path
         d="m 0,0 c 2.353,-0.223 3.529,-0.336 5.882,-0.567 4.058,-0.401 6.072,1.274 6.524,5.682 1.071,10.446 1.606,15.668 2.677,26.114 0.452,4.41 -1.226,6.47 -5.39,6.88 C 7.279,38.348 6.072,38.464 3.658,38.692 2.438,25.795 1.22,12.897 0,0 m -12.501,-9.308 c 1.718,19.814 3.435,39.626 5.152,59.439 7.296,-0.632 10.944,-0.97 18.234,-1.69 C 22.52,47.294 28.11,40.729 26.904,29.8 25.767,19.498 25.198,14.348 24.061,4.047 22.854,-6.882 16.214,-12.035 5.027,-10.932 c -7.008,0.692 -10.514,1.016 -17.528,1.624"
         style="fill:#ffffff;fill-opacity:1;fill-rule:nonzero;stroke:none"
         id="path414" />
    </g>
    <g
       id="g416"
       transform="matrix(0.05558175,0,0,-0.05558175,55.711868,105.18532)"
       style="fill:#ffffff">
      <path
         d="M 0,0 8.198,8.09 9.256,6.646 2.705,0.243 10.859,4.451 11.964,2.939 5.49,-3.567 13.579,0.731 14.529,-0.568 4.332,-5.926 2.987,-4.088 8.884,1.857 1.432,-1.959 Z"
         style="fill:#ffffff;fill-opacity:1;fill-rule:nonzero;stroke:none"
         id="path418" />
    </g>
    <g
       id="g420"
       transform="matrix(0.05558175,0,0,-0.05558175,56.432747,105.75714)"
       style="fill:#ffffff">
      <path
         d="m 0,0 1.56,-1.727 3.39,4.643 z m -0.742,-4.88 1.337,1.82 -2.019,2.233 -1.947,-1.145 -1.177,1.304 10.139,5.764 1.68,-1.86 -6.738,-9.529 z"
         style="fill:#ffffff;fill-opacity:1;fill-rule:nonzero;stroke:none"
         id="path422" />
    </g>
    <g
       id="g424"
       transform="matrix(0.05558175,0,0,-0.05558175,56.725369,106.36594)"
       style="fill:#ffffff">
      <path
         d="M 0,0 6.681,7.116 4.854,8.831 5.968,10.017 10.96,5.329 9.847,4.144 8.033,5.847 1.352,-1.27 Z"
         style="fill:#ffffff;fill-opacity:1;fill-rule:nonzero;stroke:none"
         id="path426" />
    </g>
    <g
       id="g428"
       transform="matrix(0.05558175,0,0,-0.05558175,57.239333,106.59624)"
       style="fill:#ffffff">
      <path
         d="M 0,0 3.249,4.151 C 4.522,5.78 6.17,5.957 7.811,4.674 9.463,3.381 9.673,1.749 8.4,0.12 L 7.899,-0.52 6.515,0.563 7.056,1.255 C 7.687,2.063 7.593,2.839 6.863,3.411 6.146,3.972 5.382,3.867 4.75,3.061 L 1.421,-1.194 C 0.789,-2.003 0.871,-2.769 1.589,-3.33 2.319,-3.902 3.096,-3.807 3.728,-3 L 4.47,-2.052 5.854,-3.135 5.151,-4.031 C 3.878,-5.658 2.244,-5.847 0.59,-4.554 -1.05,-3.271 -1.274,-1.627 0,0"
         style="fill:#ffffff;fill-opacity:1;fill-rule:nonzero;stroke:none"
         id="path430" />
    </g>
    <g
       id="g432"
       transform="matrix(0.05558175,0,0,-0.05558175,57.693052,107.14771)"
       style="fill:#ffffff">
      <path
         d="M 0,0 6.151,9.585 7.712,8.584 5.12,4.545 7.708,2.884 10.3,6.923 11.86,5.922 5.711,-3.663 4.15,-2.662 6.829,1.515 4.242,3.175 1.562,-1.002 Z"
         style="fill:#ffffff;fill-opacity:1;fill-rule:nonzero;stroke:none"
         id="path434" />
    </g>
    <g
       id="g436"
       transform="matrix(0.05558175,0,0,-0.05558175,58.318459,107.52756)"
       style="fill:#ffffff">
      <path
         d="M 0,0 5.239,10.121 10.59,7.351 9.841,5.905 6.14,7.821 4.68,5.003 7.672,3.453 6.924,2.007 3.931,3.557 2.396,0.593 6.098,-1.323 5.349,-2.77 Z"
         style="fill:#ffffff;fill-opacity:1;fill-rule:nonzero;stroke:none"
         id="path438" />
    </g>
    <g
       id="g440"
       transform="matrix(0.05558175,0,0,-0.05558175,58.956292,107.66266)"
       style="fill:#ffffff">
      <path
         d="M 0,0 0.185,0.452 1.797,-0.207 1.612,-0.658 c -0.325,-0.799 -0.055,-1.56 0.834,-1.923 0.858,-0.351 1.601,-0.037 1.94,0.791 0.197,0.481 0.223,0.893 0.072,1.254 C 4.321,-0.182 3.917,0.335 3.271,1.037 2.53,1.851 2.098,2.555 1.941,3.163 1.792,3.786 1.878,4.472 2.18,5.21 2.868,6.897 4.424,7.563 6.353,6.776 8.266,5.995 8.878,4.48 8.164,2.732 L 8.048,2.445 6.42,3.11 6.531,3.382 C 6.876,4.226 6.645,4.952 5.756,5.315 4.957,5.641 4.229,5.323 3.909,4.539 3.73,4.102 3.716,3.722 3.867,3.361 4.026,3.015 4.439,2.478 5.084,1.774 5.824,0.963 6.259,0.259 6.393,-0.359 6.527,-0.977 6.436,-1.678 6.122,-2.446 5.408,-4.194 3.838,-4.854 1.864,-4.049 -0.064,-3.262 -0.707,-1.733 0,0"
         style="fill:#ffffff;fill-opacity:1;fill-rule:nonzero;stroke:none"
         id="path442" />
    </g>
    <g
       id="g444"
       transform="matrix(0.05558175,0,0,-0.05558175,59.936514,108.1794)"
       style="fill:#ffffff">
      <path
         d="M 0,0 2.607,11.082 5.172,10.479 5.083,1.795 8.86,9.612 11.442,9.004 8.835,-2.078 7.108,-1.673 9.161,7.051 5.099,-1.199 3.594,-0.845 3.635,8.352 1.583,-0.373 Z"
         style="fill:#ffffff;fill-opacity:1;fill-rule:nonzero;stroke:none"
         id="path446" />
    </g>
    <g
       id="g448"
       transform="matrix(0.05558175,0,0,-0.05558175,60.912564,108.15682)"
       style="fill:#ffffff">
      <path
         d="M 0,0 2.308,-0.292 1.854,5.439 Z m 2.618,-4.185 -0.174,2.253 -2.985,0.377 -0.73,-2.137 -1.743,0.221 3.932,10.98 2.485,-0.316 1.104,-11.616 z"
         style="fill:#ffffff;fill-opacity:1;fill-rule:nonzero;stroke:none"
         id="path450" />
    </g>
    <g
       id="g452"
       transform="matrix(0.05558175,0,0,-0.05558175,61.590345,108.33942)"
       style="fill:#ffffff">
      <path
         d="M 0,0 1.464,-0.046 C 2.521,-0.081 2.975,0.362 3.009,1.419 L 3.17,6.528 C 3.204,7.587 2.779,8.057 1.722,8.089 L 0.258,8.136 Z M -1.907,-1.568 -1.547,9.821 1.806,9.716 C 4.019,9.646 5.092,8.553 5.024,6.437 L 4.864,1.394 C 4.798,-0.723 3.658,-1.745 1.444,-1.675 Z"
         style="fill:#ffffff;fill-opacity:1;fill-rule:nonzero;stroke:none"
         id="path454" />
    </g>
    <g
       id="g456"
       transform="matrix(0.05558175,0,0,-0.05558175,62.193818,108.43267)"
       style="fill:#ffffff">
      <path
         d="M 0,0 -0.655,11.377 5.358,11.723 5.452,10.097 1.292,9.857 1.474,6.688 4.838,6.883 4.932,5.257 1.566,5.063 1.759,1.731 5.92,1.971 6.014,0.346 Z"
         style="fill:#ffffff;fill-opacity:1;fill-rule:nonzero;stroke:none"
         id="path458" />
    </g>
    <g
       id="g460"
       transform="matrix(0.05558175,0,0,-0.05558175,63.254645,108.31808)"
       style="fill:#ffffff">
      <path
         d="M 0,0 -2.245,11.163 3.479,12.316 3.801,10.721 -0.107,9.935 0.534,6.745 3.646,7.37 3.965,5.776 0.855,5.15 1.817,0.367 Z"
         style="fill:#ffffff;fill-opacity:1;fill-rule:nonzero;stroke:none"
         id="path462" />
    </g>
    <g
       id="g464"
       transform="matrix(0.05558175,0,0,-0.05558175,63.883743,107.80721)"
       style="fill:#ffffff">
      <path
         d="m 0,0 1.076,0.32 c 1.139,0.339 1.5,0.955 1.197,1.97 L 2.167,2.649 C 1.875,3.632 1.328,3.928 0.345,3.636 L -0.965,3.245 Z M 0.041,-6.646 -3.208,4.277 -0.104,5.2 C 2.034,5.836 3.324,5.269 3.881,3.396 L 3.987,3.038 C 4.354,1.805 4.072,0.872 3.14,0.237 L 3.152,0.191 c 1.152,0.07 1.872,-0.582 2.336,-2.141 l 0.39,-1.312 C 6.072,-3.917 6.3,-4.393 6.547,-4.71 L 4.736,-5.248 C 4.515,-4.959 4.299,-4.462 4.1,-3.791 L 3.672,-2.355 C 3.32,-1.169 2.753,-0.862 1.521,-1.229 l -1.062,-0.316 1.36,-4.571 z"
         style="fill:#ffffff;fill-opacity:1;fill-rule:nonzero;stroke:none"
         id="path466" />
    </g>
    <g
       id="g468"
       transform="matrix(0.05558175,0,0,-0.05558175,64.630077,107.42742)"
       style="fill:#ffffff">
      <path
         d="M 0,0 C -0.372,0.921 -1.071,1.218 -1.976,0.852 -2.882,0.486 -3.179,-0.213 -2.807,-1.133 l 2.023,-5.009 c 0.372,-0.92 1.071,-1.217 1.976,-0.852 0.905,0.365 1.203,1.064 0.83,1.985 z M -4.496,-1.903 C -5.27,0.014 -4.592,1.55 -2.586,2.36 -0.578,3.171 0.977,2.535 1.75,0.618 l 1.962,-4.857 c 0.773,-1.916 0.097,-3.454 -1.911,-4.263 -2.007,-0.811 -3.562,-0.175 -4.335,1.74 z"
         style="fill:#ffffff;fill-opacity:1;fill-rule:nonzero;stroke:none"
         id="path470" />
    </g>
    <g
       id="g472"
       transform="matrix(0.05558175,0,0,-0.05558175,65.214502,107.67873)"
       style="fill:#ffffff">
      <path
         d="M 0,0 -5.348,10.054 -3.02,11.291 2.641,4.702 0.325,13.071 2.667,14.317 8.015,4.263 6.449,3.43 2.239,11.345 4.626,2.461 3.261,1.734 -2.773,8.678 1.437,0.765 Z"
         style="fill:#ffffff;fill-opacity:1;fill-rule:nonzero;stroke:none"
         id="path474" />
    </g>
    <g
       id="g476"
       transform="matrix(0.05558175,0,0,-0.05558175,66.350833,106.99058)"
       style="fill:#ffffff">
      <path
         d="m 0,0 -8.304,7.977 1.416,1.093 6.572,-6.374 -4.422,8.037 1.479,1.144 6.676,-6.295 -4.512,7.966 1.274,0.985 L 5.805,4.488 4.003,3.095 -2.094,8.829 1.918,1.482 Z"
         style="fill:#ffffff;fill-opacity:1;fill-rule:nonzero;stroke:none"
         id="path478" />
    </g>
    <g
       id="g480"
       transform="matrix(0.05558175,0,0,-0.05558175,66.852698,105.95163)"
       style="fill:#ffffff">
      <path
         d="m 0,0 c -0.687,0.718 -1.446,0.733 -2.149,0.059 -0.706,-0.674 -0.722,-1.434 -0.037,-2.15 l 3.736,-3.9 c 0.685,-0.717 1.445,-0.733 2.149,-0.058 0.705,0.675 0.721,1.434 0.035,2.151 z m -3.468,-3.433 c -1.428,1.493 -1.37,3.17 0.194,4.666 1.562,1.496 3.24,1.484 4.669,-0.009 L 5.017,-2.558 C 6.445,-4.049 6.387,-5.728 4.824,-7.224 3.263,-8.72 1.583,-8.706 0.154,-7.215 Z"
         style="fill:#ffffff;fill-opacity:1;fill-rule:nonzero;stroke:none"
         id="path482" />
    </g>
    <g
       id="g484"
       transform="matrix(0.05558175,0,0,-0.05558175,67.304082,105.46518)"
       style="fill:#ffffff">
      <path
         d="m 0,0 c -0.749,0.65 -1.507,0.596 -2.146,-0.143 -0.641,-0.737 -0.585,-1.495 0.165,-2.145 l 4.083,-3.538 c 0.75,-0.65 1.507,-0.596 2.147,0.142 0.639,0.738 0.585,1.496 -0.165,2.146 z m -3.135,-3.744 c -1.562,1.354 -1.659,3.031 -0.242,4.667 1.418,1.637 3.092,1.779 4.654,0.426 l 3.96,-3.432 C 6.8,-3.436 6.896,-5.114 5.479,-6.749 4.062,-8.386 2.387,-8.528 0.825,-7.175 Z"
         style="fill:#ffffff;fill-opacity:1;fill-rule:nonzero;stroke:none"
         id="path486" />
    </g>
    <g
       id="g488"
       transform="matrix(0.05558175,0,0,-0.05558175,67.922813,105.28611)"
       style="fill:#ffffff">
      <path
         d="M 0,0 0.851,1.193 C 1.464,2.055 1.349,2.677 0.487,3.292 L -3.675,6.261 C -4.536,6.875 -5.162,6.781 -5.777,5.92 L -6.628,4.727 Z m 0.247,-2.455 -9.277,6.617 1.946,2.731 c 1.286,1.801 2.791,2.088 4.513,0.859 L 1.538,4.822 C 3.262,3.593 3.479,2.077 2.195,0.274 Z"
         style="fill:#ffffff;fill-opacity:1;fill-rule:nonzero;stroke:none"
         id="path490" />
    </g>
    <g
       id="g492"
       transform="matrix(0.05558175,0,0,-0.05558175,58.89159,103.83061)"
       style="fill:#ffffff">
      <path
         d="M 0,0 -1.635,12.58 H 0.772 L 1.923,3.092 3.199,12.58 h 2.588 l 1.294,-9.488 1.15,9.488 h 2.157 L 8.753,0 H 5.644 L 4.476,8.483 3.307,0 Z"
         style="fill:#ffffff;fill-opacity:1;fill-rule:nonzero;stroke:none"
         id="path494" />
    </g>
    <g
       id="g496"
       transform="matrix(0.05558175,0,0,-0.05558175,59.707674,103.58386)"
       style="fill:#ffffff">
      <path
         d="M 0,0 H 2.031 L 1.007,5.625 Z m 2.84,-4.439 -0.413,2.282 h -2.822 l -0.414,-2.282 h -2.39 l 2.606,12.58 H 2.804 L 5.41,-4.439 Z"
         style="fill:#ffffff;fill-opacity:1;fill-rule:nonzero;stroke:none"
         id="path498" />
    </g>
    <g
       id="g500"
       transform="matrix(0.05558175,0,0,-0.05558175,60.17719,103.83061)"
       style="fill:#ffffff">
      <path
         d="M 0,0 V 10.388 H -2.624 V 12.58 H 5.14 V 10.388 H 2.517 V 0 Z"
         style="fill:#ffffff;fill-opacity:1;fill-rule:nonzero;stroke:none"
         id="path502" />
    </g>
    <g
       id="g504"
       transform="matrix(0.05558175,0,0,-0.05558175,60.565717,103.32316)"
       style="fill:#ffffff">
      <path
         d="M 0,0 C 0,2.318 1.33,3.63 3.702,3.63 6.074,3.63 7.387,2.354 7.387,0 V -0.917 H 5.014 V 0.09 c 0,0.952 -0.413,1.419 -1.258,1.419 -0.79,0 -1.239,-0.502 -1.239,-1.419 v -5.86 c 0,-0.916 0.449,-1.418 1.239,-1.418 0.845,0 1.258,0.466 1.258,1.418 v 1.367 H 7.387 V -5.679 C 7.387,-8.033 6.074,-9.31 3.702,-9.31 1.33,-9.31 0,-7.998 0,-5.679 Z"
         style="fill:#ffffff;fill-opacity:1;fill-rule:nonzero;stroke:none"
         id="path506" />
    </g>
    <g
       id="g508"
       transform="matrix(0.05558175,0,0,-0.05558175,61.105143,103.83061)"
       style="fill:#ffffff">
      <path
         d="M 0,0 V 12.58 H 2.516 V 7.476 H 5.212 V 12.58 H 7.728 V 0 H 5.212 V 5.284 H 2.516 V 0 Z"
         style="fill:#ffffff;fill-opacity:1;fill-rule:nonzero;stroke:none"
         id="path510" />
    </g>
    <g
       id="g512"
       transform="matrix(0.05558175,0,0,-0.05558175,61.684517,103.83061)"
       style="fill:#ffffff">
      <path
         d="M 0,0 V 12.58 H 3.54 L 5.212,3.811 6.865,12.58 h 3.54 V 0 H 8.033 V 9.363 L 6.164,0 H 4.062 L 2.192,9.363 V 0 Z"
         style="fill:#ffffff;fill-opacity:1;fill-rule:nonzero;stroke:none"
         id="path514" />
    </g>
    <g
       id="g516"
       transform="matrix(0.05558175,0,0,-0.05558175,62.555477,103.58386)"
       style="fill:#ffffff">
      <path
         d="M 0,0 H 2.031 L 1.007,5.625 Z m 2.84,-4.439 -0.413,2.282 h -2.822 l -0.414,-2.282 h -2.389 l 2.605,12.58 H 2.804 L 5.41,-4.439 Z"
         style="fill:#ffffff;fill-opacity:1;fill-rule:nonzero;stroke:none"
         id="path518" />
    </g>
    <g
       id="g520"
       transform="matrix(0.05558175,0,0,-0.05558175,63.280702,103.83061)"
       style="fill:#ffffff">
      <path
         d="M 0,0 -2.031,5.481 -3.056,3.882 V 0 h -2.515 v 12.58 h 2.515 V 7.459 L 0.09,12.58 H 2.642 L -0.306,7.907 2.695,0 Z"
         style="fill:#ffffff;fill-opacity:1;fill-rule:nonzero;stroke:none"
         id="path522" />
    </g>
    <g
       id="g524"
       transform="matrix(0.05558175,0,0,-0.05558175,63.544387,103.83061)"
       style="fill:#ffffff">
      <path
         d="M 0,0 V 12.58 H 6.848 V 10.388 H 2.516 V 7.476 H 5.967 V 5.284 H 2.516 V 2.193 H 6.848 V 0 Z"
         style="fill:#ffffff;fill-opacity:1;fill-rule:nonzero;stroke:none"
         id="path526" />
    </g>
    <g
       id="g528"
       transform="matrix(0.05558175,0,0,-0.05558175,64.190691,103.429)"
       style="fill:#ffffff">
      <path
         d="M 0,0 H 0.917 C 1.94,0 2.408,0.413 2.408,1.401 v 0.485 c 0,0.845 -0.414,1.276 -1.221,1.276 H 0 Z M -2.517,-7.226 V 5.354 H 1.204 C 3.72,5.354 4.925,4.33 4.925,2.155 V 1.671 c 0,-1.312 -0.54,-2.175 -1.636,-2.588 v -0.054 c 1.15,-0.305 1.653,-1.241 1.653,-3.038 v -1.473 c 0,-0.754 0.09,-1.33 0.287,-1.744 h -2.57 c -0.143,0.341 -0.216,0.917 -0.216,1.762 v 1.635 c 0,1.204 -0.413,1.636 -1.581,1.636 H 0 v -5.033 z"
         style="fill:#ffffff;fill-opacity:1;fill-rule:nonzero;stroke:none"
         id="path530" />
    </g>
    <g
       id="g532"
       transform="matrix(0.05558175,0,0,-0.05558175,64.585244,103.64878)"
       style="fill:#ffffff">
      <path
         d="M 0,0 V 0.557 H 2.372 V 0 c 0,-0.81 0.431,-1.33 1.294,-1.33 0.791,0 1.313,0.485 1.313,1.33 0,0.521 -0.126,0.898 -0.396,1.132 C 4.312,1.383 3.738,1.725 2.839,2.174 1.778,2.678 1.061,3.217 0.646,3.81 0.252,4.402 0.054,5.14 0.054,6.056 c 0,2.084 1.347,3.432 3.719,3.432 2.373,0 3.631,-1.33 3.631,-3.467 V 5.66 H 5.032 v 0.342 c 0,0.917 -0.414,1.365 -1.24,1.365 -0.773,0 -1.223,-0.484 -1.223,-1.275 0,-0.467 0.144,-0.826 0.413,-1.06 C 3.253,4.798 3.846,4.456 4.744,4.024 5.805,3.522 6.541,2.965 6.919,2.372 7.296,1.779 7.493,1.006 7.493,0.054 7.493,-2.103 6.128,-3.451 3.702,-3.451 1.312,-3.451 0,-2.14 0,0"
         style="fill:#ffffff;fill-opacity:1;fill-rule:nonzero;stroke:none"
         id="path534" />
    </g>
    <g
       id="g536"
       transform="matrix(0.05558175,0,0,-0.05558175,64.945225,97.222901)"
       style="fill:#ffffff">
      <path
         d="M 0,0 C -1.552,1.426 -2.946,2.695 -4.295,3.997 -4.436,4.138 -4.514,4.561 -4.42,4.687 -4.279,4.843 -3.902,4.953 -3.699,4.89 -1.803,4.185 -0.423,2.915 0.313,1.019 0.423,0.736 0.094,0.282 0,0 m -9.498,-11.615 c -3.527,3.261 -6.349,7.178 -9.608,10.706 -0.08,0.078 -0.08,0.235 -0.205,0.627 1.693,-1.552 3.166,-2.884 4.64,-4.233 0.047,0.047 0.094,0.095 0.125,0.142 -1.285,1.441 -2.57,2.884 -3.855,4.326 l 0.204,0.203 c 1.441,-1.301 2.884,-2.601 4.325,-3.918 l 0.142,0.141 c -1.348,1.505 -2.697,2.994 -4.029,4.483 l 0.189,0.203 c 1.519,-1.378 3.055,-2.758 4.576,-4.137 0.031,0.047 0.079,0.093 0.11,0.125 -1.286,1.442 -2.571,2.884 -3.856,4.326 0.062,0.062 0.141,0.142 0.219,0.204 1.223,-1.098 2.446,-2.21 3.668,-3.323 0.063,0.062 0.11,0.126 0.172,0.188 -1.191,1.332 -2.382,2.664 -3.573,3.997 0.078,0.063 0.141,0.125 0.219,0.188 1.599,-1.457 3.198,-2.915 4.797,-4.373 l 0.109,0.109 c -1.457,1.631 -2.915,3.245 -4.373,4.86 0.063,0.062 0.142,0.125 0.204,0.204 1.442,-1.317 2.884,-2.619 4.326,-3.919 0.047,0.047 0.094,0.093 0.141,0.157 -1.238,1.379 -2.461,2.759 -3.699,4.122 0.062,0.078 0.141,0.156 0.219,0.22 1.443,-1.318 2.9,-2.634 4.342,-3.951 l 0.141,0.141 c -1.395,1.536 -2.775,3.072 -4.153,4.609 l 0.188,0.204 c 1.552,-1.412 3.088,-2.822 4.64,-4.217 0.047,0.047 0.078,0.079 0.109,0.126 -1.285,1.441 -2.555,2.884 -3.84,4.31 l 0.203,0.219 c 1.301,-1.176 2.603,-2.335 3.888,-3.511 0.063,0.063 0.109,0.125 0.156,0.173 -1.269,1.41 -2.523,2.821 -3.793,4.216 0.063,0.078 0.125,0.142 0.204,0.204 1.568,-1.427 3.135,-2.852 4.718,-4.279 0.031,0.031 0.063,0.078 0.094,0.109 -1.41,1.583 -2.821,3.152 -4.216,4.735 0.063,0.062 0.141,0.125 0.219,0.203 3.621,-3.291 7.242,-6.583 10.925,-9.922 z M -28.48,25.894 c -7.727,-3.653 -12.633,-10.236 -17.759,-16.615 4.514,8.589 10.737,15.612 18.887,20.909 1.741,-3.103 3.261,-6.175 5.142,-9.028 1.865,-2.837 4.075,-5.455 6.128,-8.15 -4.718,3.636 -8.824,7.899 -12.398,12.884 M 3.84,0.423 C 3.041,4.169 0.769,6.692 -2.821,7.993 -4.295,8.526 -5.784,8.84 -6.74,7.053 -6.771,6.99 -6.881,6.975 -7.054,6.865 c -1.786,2.069 -3.62,4.138 -5.376,6.27 -4.028,4.906 -7.883,9.937 -10.157,15.94 -0.705,1.897 -1.128,3.888 -1.708,5.909 -0.423,-0.187 -0.893,-0.391 -1.363,-0.611 -4.484,-2.179 -8.434,-5.094 -12.038,-8.495 -4.671,-4.404 -8.7,-9.326 -11.176,-15.345 -0.816,-1.975 -1.348,-4.028 -1.396,-5.972 5.911,2.916 12.587,3.292 20.847,-1.442 0.847,-0.455 1.662,-0.972 2.461,-1.52 3.183,-2.163 6.035,-4.907 8.856,-7.853 l -18.229,-18.214 h 0.722 c 1.394,-0.015 2.617,-0.031 3.746,-0.031 5.516,5.549 12.633,12.696 16.018,16.145 0.58,-0.612 1.114,-1.161 1.928,-2.007 -1.599,-1.473 -3.182,-2.868 -4.686,-4.341 -1.583,-1.552 -6.097,-6.067 -9.843,-9.828 0.736,-0.016 1.472,-0.032 2.257,-0.032 4.937,4.843 10.548,10.345 13.323,13.026 -0.079,0.125 -0.157,0.234 -0.236,0.36 0.283,-0.266 0.565,-0.533 0.988,-0.925 -2.712,-2.633 -7.931,-7.79 -12.712,-12.492 0.878,-0.015 1.803,-0.031 2.837,-0.047 l 2.163,-0.032 2.79,2.759 4.969,4.906 0.031,0.031 c 0.8,0.8 1.599,1.599 2.398,2.383 0.329,-0.282 0.752,-0.658 0.956,-0.831 0.376,0.267 0.737,0.518 1.145,0.8 l 0.392,0.407 0.329,0.314 6.787,6.802 3.291,3.292 C 2.806,-3.323 2.43,-2.9 1.818,-2.241 2.398,-1.787 2.994,-1.442 3.433,-0.925 3.715,-0.596 3.935,0 3.84,0.423"
         style="fill:#ffffff;fill-opacity:1;fill-rule:nonzero;stroke:none"
         id="path538" />
    </g>
    <g
       id="g540"
       transform="matrix(0.05558175,0,0,-0.05558175,59.919258,97.273437)"
       style="fill:#ffffff">
      <path
         d="m 0,0 c -3.26,-3.527 -6.081,-7.445 -9.607,-10.706 l -9.013,8.997 c 3.682,3.339 7.304,6.631 10.925,9.922 0.078,-0.078 0.14,-0.141 0.218,-0.203 -1.41,-1.583 -2.805,-3.152 -4.215,-4.735 0.031,-0.031 0.062,-0.078 0.093,-0.109 1.583,1.427 3.151,2.853 4.718,4.279 C -6.818,7.383 -6.739,7.319 -6.677,7.241 -7.946,5.847 -9.2,4.436 -10.47,3.025 c 0.047,-0.047 0.094,-0.11 0.141,-0.172 1.301,1.175 2.602,2.334 3.903,3.51 l 0.203,-0.218 c -1.285,-1.427 -2.554,-2.87 -3.84,-4.311 0.032,-0.047 0.063,-0.079 0.11,-0.126 1.552,1.396 3.088,2.806 4.64,4.217 L -5.125,5.721 C -6.504,4.185 -7.884,2.648 -9.278,1.112 l 0.14,-0.14 c 1.443,1.316 2.9,2.632 4.342,3.95 0.078,-0.064 0.141,-0.142 0.22,-0.22 C -5.814,3.339 -7.037,1.959 -8.275,0.58 -8.229,0.517 -8.182,0.47 -8.135,0.423 -6.692,1.724 -5.25,3.025 -3.809,4.342 -3.746,4.264 -3.667,4.2 -3.604,4.138 -5.062,2.523 -6.521,0.909 -7.978,-0.722 l 0.11,-0.109 c 1.598,1.458 3.197,2.916 4.797,4.373 0.078,-0.063 0.14,-0.125 0.218,-0.188 -1.191,-1.333 -2.381,-2.665 -3.573,-3.997 0.063,-0.062 0.11,-0.126 0.172,-0.188 1.223,1.113 2.445,2.226 3.668,3.323 0.078,-0.062 0.157,-0.141 0.22,-0.204 -1.285,-1.442 -2.571,-2.884 -3.857,-4.326 0.033,-0.031 0.079,-0.078 0.111,-0.125 1.52,1.379 3.056,2.759 4.576,4.138 l 0.188,-0.204 c -1.332,-1.489 -2.68,-2.978 -4.028,-4.483 0.047,-0.047 0.094,-0.094 0.142,-0.141 1.441,1.317 2.883,2.618 4.326,3.918 l 0.203,-0.203 c -1.285,-1.442 -2.57,-2.884 -3.871,-4.326 0.047,-0.047 0.094,-0.095 0.125,-0.141 1.489,1.348 2.963,2.68 4.655,4.232 C 0.079,0.235 0.079,0.078 0,0 m -19.106,0.909 c -0.094,0.282 -0.423,0.737 -0.314,1.019 0.736,1.896 2.116,3.166 4.013,3.871 0.204,0.063 0.58,-0.047 0.72,-0.203 0.095,-0.126 0.016,-0.549 -0.125,-0.69 -1.347,-1.302 -2.743,-2.571 -4.294,-3.997 m 22.21,21.16 c 1.865,2.853 3.385,5.925 5.141,9.029 C 16.396,25.8 22.618,18.777 27.133,10.188 22.007,16.567 17.101,23.15 9.374,26.803 5.8,21.818 1.693,17.555 -3.024,13.919 c 2.052,2.695 4.262,5.313 6.128,8.15 M 7.854,2.508 c 0.798,0.549 1.614,1.065 2.46,1.52 8.26,4.734 14.938,4.358 20.847,1.442 -0.048,1.944 -0.58,3.997 -1.395,5.972 -2.477,6.019 -6.505,10.941 -11.176,15.345 -3.605,3.401 -7.57,6.317 -12.038,8.495 -0.47,0.22 -0.94,0.424 -1.364,0.612 C 4.608,33.872 4.186,31.881 3.48,29.984 1.207,23.981 -2.648,18.95 -6.677,14.044 c -1.756,-2.132 -3.59,-4.201 -5.376,-6.27 -0.173,0.11 -0.282,0.125 -0.313,0.188 -0.956,1.787 -2.446,1.474 -3.919,0.94 -3.589,-1.3 -5.862,-3.824 -6.661,-7.57 -0.095,-0.423 0.125,-1.019 0.407,-1.348 0.423,-0.517 1.034,-0.862 1.614,-1.316 -0.611,-0.659 -0.987,-1.082 -1.441,-1.567 l 3.291,-3.292 6.787,-6.803 0.329,-0.314 0.392,-0.407 c 0.408,-0.282 0.768,-0.533 1.144,-0.8 0.204,0.173 0.627,0.549 0.956,0.831 0.8,-0.784 1.599,-1.583 2.399,-2.382 l 0.031,-0.032 4.969,-4.906 2.743,-2.726 2.774,0.062 v 0.031 l 2.21,0.016 c -4.765,4.686 -9.953,9.811 -12.649,12.43 0.423,0.391 0.705,0.658 0.987,0.924 -0.078,-0.126 -0.156,-0.235 -0.235,-0.36 2.774,-2.665 8.339,-8.151 13.276,-12.978 l 2.273,0.015 c -3.747,3.762 -8.229,8.245 -9.812,9.797 -1.505,1.473 -3.088,2.868 -4.686,4.341 0.814,0.847 1.347,1.395 1.927,2.007 3.386,-3.449 10.487,-10.58 16.003,-16.129 l 4.468,0.031 -18.214,18.198 c 2.821,2.947 5.674,5.69 8.857,7.853"
         style="fill:#ffffff;fill-opacity:1;fill-rule:nonzero;stroke:none"
         id="path542" />
    </g>
  </g>
</svg>
